<?xml version="1.0" encoding="UTF-8" standalone="no"?>
<!DOCTYPE svg PUBLIC "-//W3C//DTD SVG 1.1//EN" "http://www.w3.org/Graphics/SVG/1.1/DTD/svg11.dtd">
<svg width="100%" height="100%" viewBox="0 0 499 499" version="1.1" xmlns="http://www.w3.org/2000/svg" xmlns:xlink="http://www.w3.org/1999/xlink" xml:space="preserve" xmlns:serif="http://www.serif.com/" style="fill-rule:evenodd;clip-rule:evenodd;stroke-linejoin:round;stroke-miterlimit:1.41421;">
    <g transform="matrix(1,0,0,1,3387.87,-4048.22)">
        <g transform="matrix(1,0,0,1,-6306.31,1233.85)">
            <g transform="matrix(1,0,0,1,-13.605,24.2777)">
                <g transform="matrix(1.2531,0,0,1.2531,-791.68,-723.876)">
                    <circle cx="3170.33" cy="3002.95" r="142.903" style="fill:white;"/>
                </g>
                <g>
                    <g transform="matrix(0.57572,0,0,0.793347,4752.66,-460.221)">
                        <path d="M-3113.31,4583.54L-3056.5,4400.53C-3056.5,4400.53 -2966.44,4377.46 -2891.39,4358.23C-2832.33,4343.1 -2766.58,4357.95 -2729.8,4394.74C-2729.79,4394.74 -2729.79,4394.74 -2729.79,4394.74C-2729.79,4394.74 -2729.79,4394.74 -2729.79,4394.74C-2693,4357.95 -2627.26,4343.1 -2568.2,4358.23C-2493.14,4377.46 -2403.09,4400.53 -2403.09,4400.53L-2346.28,4583.54C-2346.28,4583.54 -2473.78,4550.87 -2568.2,4526.69C-2627.26,4511.55 -2693,4526.41 -2729.79,4563.2C-2729.79,4563.2 -2729.79,4563.2 -2729.79,4563.2C-2729.79,4563.2 -2729.79,4563.2 -2729.8,4563.2C-2766.58,4526.41 -2832.33,4511.55 -2891.39,4526.69C-2985.8,4550.87 -3113.31,4583.54 -3113.31,4583.54" style="fill:white;"/>
                    </g>
                    <path d="M3039.14,3148.27L3088.03,3131.01C3122.03,3119.01 3159.88,3130.79 3181.06,3159.98C3181.06,3159.98 3181.06,3159.98 3181.06,3159.98C3181.06,3159.98 3181.06,3159.98 3181.06,3159.98C3202.24,3130.79 3240.09,3119.01 3274.09,3131.01L3322.99,3148.27C3319.66,3152.58 3316.15,3156.74 3312.45,3160.73L3274.09,3147.19C3240.09,3135.19 3202.24,3146.97 3181.06,3176.16C3181.06,3176.16 3181.06,3176.16 3181.06,3176.16C3181.06,3176.16 3181.06,3176.16 3181.06,3176.16C3159.88,3146.97 3122.03,3135.19 3088.03,3147.19L3049.67,3160.73C3045.97,3156.74 3042.46,3152.58 3039.14,3148.27Z" style="fill:rgb(173,209,251);"/>
                    <g transform="matrix(1.2531,0,0,1.2531,-791.68,-723.876)">
                        <path d="M3170.8,2857.65C3215.03,2857.85 3258.85,2879.42 3285.96,2914.99C3313.24,2950.79 3322.63,2999.69 3309.87,3043.56C3297.8,3085.01 3266.29,3120.28 3226.46,3136.99C3185.37,3154.23 3136.36,3151.34 3097.27,3128.54C3062.98,3108.54 3037.51,3074.16 3028.66,3035.3C3020.09,2997.7 3027.2,2956.78 3048.18,2924.28C3072.69,2886.31 3115.33,2860.7 3161.47,2857.91C3164.58,2857.73 3167.69,2857.64 3170.8,2857.65ZM3169.88,2862.44C3127.16,2862.63 3084.74,2883.49 3058.51,2917.89C3032.22,2952.39 3023.08,2999.43 3035.27,3041.81C3046.82,3081.93 3077.23,3116.28 3116.06,3132.57C3156.34,3149.48 3204.3,3146.24 3242.08,3123.76C3274.45,3104.49 3298.67,3071.76 3307.24,3034.66C3317.77,2989.09 3304,2938.76 3270.85,2904.81C3245.64,2878.98 3210.62,2863.41 3173.96,2862.48C3172.6,2862.45 3171.24,2862.43 3169.88,2862.44Z" style="fill:none;"/>
                    </g>
                    <g transform="matrix(0.57572,0,0,0.793347,4752.66,-460.221)">
                        <path d="M-2614.58,4348.59C-2598.22,4348.67 -2581.87,4350.74 -2566.47,4354.66L-2401.35,4396.96C-2400.34,4397.37 -2399.17,4397.64 -2398.01,4399.7L-2341.19,4582.71L-2341.18,4584.31L-2342.07,4585.77L-2343.72,4586.83L-2345.83,4587.31L-2348.01,4587.1C-2422.21,4568.1 -2496.35,4548.97 -2570.6,4530.08C-2625.12,4516.46 -2690.31,4530.72 -2725.16,4565C-2725.16,4565 -2726.43,4566.09 -2726.43,4566.09L-2728.29,4566.82L-2730.38,4566.95L-2732.38,4566.48L-2733.96,4565.47C-2751.25,4548.74 -2776.86,4534.84 -2805.72,4528.66C-2833.04,4522.81 -2862.87,4523.43 -2889.66,4530.25L-3111.57,4587.1L-3116.31,4586.63C-3116.31,4586.63 -3118.39,4582.71 -3118.39,4582.71L-3061.58,4399.7L-3060.92,4398.53C-3059.76,4397.58 -3059.75,4397.57 -3058.23,4396.96C-3002.96,4382.8 -2947.72,4368.55 -2892.41,4354.48C-2836.1,4340.41 -2768.54,4353.48 -2729.79,4388.51C-2703,4364.31 -2660.92,4349.01 -2616.77,4348.59C-2616.04,4348.59 -2615.31,4348.59 -2614.58,4348.59ZM-2615.98,4356.15C-2658.47,4356.4 -2700.24,4372.03 -2725.16,4396.55C-2725.16,4396.55 -2726.43,4397.63 -2726.43,4397.63L-2728.29,4398.36L-2730.38,4398.5L-2732.38,4398.02L-2733.96,4397.01C-2754.51,4377.13 -2786.81,4361.58 -2822.76,4357.4C-2845.07,4354.8 -2868.22,4356.35 -2889.66,4361.8L-3052.05,4403.4L-3106.15,4577.69C-3034.91,4559.44 -2963.71,4541.08 -2892.41,4522.94C-2836.08,4508.86 -2768.51,4521.96 -2729.79,4556.96C-2693.19,4523.91 -2628.19,4508.78 -2570.78,4522.07C-2569.33,4522.4 -2567.9,4522.75 -2566.47,4523.12L-2353.43,4577.69L-2407.54,4403.4C-2461.89,4389.47 -2516.2,4375.46 -2570.6,4361.63C-2585.18,4357.98 -2600.56,4356.12 -2615.98,4356.15Z" style="fill:none;"/>
                    </g>
                    <g transform="matrix(0.57572,0,0,0.793347,4752.66,-473.787)">
                        <path d="M-2620.54,4515.46C-2604.64,4515.54 -2588.75,4517.51 -2573.62,4521.29C-2533.01,4531.62 -2515.93,4536.07 -2475.34,4546.46C-2452.82,4552.15 -2426.42,4548.61 -2408.12,4537.14L-2406.35,4536.41L-2404.34,4536.23L-2402.38,4536.62L-2400.77,4537.53L-2399.77,4538.81L-2399.52,4540.28L-2400.06,4541.7C-2404.12,4545.48 -2410.57,4548.18 -2416.91,4550.54C-2435.6,4557.52 -2458.22,4558.67 -2478.18,4553.76C-2519.02,4543.44 -2536.23,4538.82 -2577.05,4528.43C-2628.29,4515.62 -2688.94,4527.35 -2724.47,4558.17C-2724.47,4558.17 -2725.04,4558.76 -2725.81,4559.57C-2726.71,4560.51 -2728.2,4561.06 -2729.78,4561.04C-2731.36,4561.01 -2732.82,4560.42 -2733.67,4559.45C-2733.67,4559.45 -2733.67,4559.45 -2733.67,4559.45C-2768.24,4528.51 -2829.52,4514.94 -2883.18,4528.59L-3085.91,4580.53C-3087.91,4580.74 -3087.94,4580.74 -3089.9,4580.38L-3091.53,4579.49L-3092.56,4578.22L-3092.85,4576.76C-3092.35,4575.34 -3092.34,4575.32 -3091.13,4574.15L-3089.38,4573.4C-3021.58,4556.03 -2953.82,4538.56 -2885.96,4521.29C-2833.19,4508.1 -2771.05,4518.74 -2732.29,4549.05C-2731.25,4549.86 -2729.79,4551.05 -2729.79,4551.05C-2729.44,4550.76 -2729.09,4550.48 -2728.74,4550.19C-2701.42,4528.29 -2662.38,4515.71 -2621.93,4515.46C-2621.47,4515.46 -2621.01,4515.46 -2620.54,4515.46Z" style="fill:rgb(68,155,243);fill-rule:nonzero;"/>
                    </g>
                    <g transform="matrix(0.57572,0,0,0.793347,4752.66,-501.373)">
                        <path d="M-2942.86,4536.21C-2940.34,4536.42 -2940.05,4536.91 -2939.37,4537.47C-2937.09,4539.35 -2937.87,4542.5 -2941.54,4543.54L-3007.06,4560.33C-3010.77,4561.18 -3011.54,4560.23 -3012.7,4559.27C-3014.97,4557.41 -3014.29,4554.27 -3010.53,4553.2L-2945.01,4536.41C-2944.47,4536.29 -2944.27,4536.16 -2942.86,4536.21Z" style="fill:rgb(173,209,251);fill-rule:nonzero;"/>
                    </g>
                    <g transform="matrix(0.57572,0,0,0.793347,4752.66,-528.959)">
                        <path d="M-2620.37,4515.46C-2604.25,4515.56 -2588.19,4517.57 -2572.95,4521.46L-2523.85,4534.04C-2519.51,4535.35 -2520.07,4536.72 -2520.46,4538.27C-2520.99,4540.43 -2524.36,4541.8 -2527.32,4541.17C-2551.94,4534.86 -2576.31,4526.83 -2601.12,4524.11C-2626.67,4521.31 -2653.09,4524 -2676.94,4531.82C-2676.94,4531.82 -2681.05,4532.57 -2683.09,4530.8C-2685.4,4528.79 -2684.72,4526.05 -2679.68,4524.42C-2661.06,4518.5 -2640.97,4515.43 -2620.37,4515.46Z" style="fill:rgb(173,209,251);fill-rule:nonzero;"/>
                    </g>
                    <g transform="matrix(0.57572,0,0,0.793347,4752.66,-528.959)">
                        <path d="M-2837.87,4515.46C-2832.39,4515.48 -2826.92,4515.72 -2821.48,4516.18C-2821.48,4516.18 -2817.61,4516.68 -2816.65,4518.8C-2815.41,4521.55 -2818.36,4524.04 -2824.12,4523.58C-2844.03,4522.06 -2864.28,4523.77 -2883.17,4528.59L-2920.5,4538.15C-2922.96,4538.7 -2923.51,4538.33 -2924.48,4538C-2928.21,4536.7 -2928.47,4532.34 -2923.97,4531.02C-2896.51,4523.99 -2869.46,4515.79 -2840.45,4515.47C-2839.59,4515.46 -2838.73,4515.46 -2837.87,4515.46Z" style="fill:rgb(173,209,251);fill-rule:nonzero;"/>
                    </g>
                    <g transform="matrix(0.57572,0,0,0.793347,4752.66,-528.959)">
                        <path d="M-2978.98,4545.43C-2976.48,4545.61 -2976.24,4546.07 -2975.57,4546.56C-2973.24,4548.3 -2973.96,4551.65 -2977.24,4552.68C-2977.35,4552.71 -2977.45,4552.74 -2977.56,4552.77L-3036.57,4567.89C-3041.49,4569.02 -3047.06,4562.75 -3040.03,4560.76L-2981.03,4545.64C-2979.82,4545.36 -2980.38,4545.4 -2978.98,4545.43Z" style="fill:rgb(173,209,251);fill-rule:nonzero;"/>
                    </g>
                    <g transform="matrix(0.57572,0,0,0.793347,4752.66,-556.544)">
                        <path d="M-2620.3,4515.46C-2604.23,4515.55 -2588.18,4517.58 -2572.95,4521.46L-2518.74,4535.35C-2514.91,4536.49 -2514.18,4540.73 -2517.99,4542.23C-2519.21,4542.72 -2520.06,4542.94 -2522.21,4542.48C-2546.91,4536.15 -2552.25,4534.74 -2576.97,4528.45C-2599.77,4522.73 -2624.61,4521.52 -2648.32,4525.04C-2648.32,4525.04 -2650.9,4525.21 -2652.46,4524.38C-2655.95,4522.51 -2654.54,4518.21 -2648.64,4517.37C-2639.31,4516.08 -2629.76,4515.43 -2620.3,4515.46Z" style="fill:rgb(173,209,251);fill-rule:nonzero;"/>
                    </g>
                    <g transform="matrix(0.57572,0,0,0.793347,4752.66,-556.544)">
                        <path d="M-2837.72,4515.46C-2822.43,4515.54 -2807.13,4517.36 -2792.74,4520.83C-2789.79,4521.54 -2787.4,4523.65 -2788.43,4525.88C-2789.47,4528.1 -2792.4,4528.86 -2797.01,4527.77C-2817.16,4523.06 -2838.77,4521.84 -2859.7,4524.25C-2859.7,4524.25 -2870.43,4523.1 -2865.85,4518.45C-2863.46,4516.02 -2856.23,4516.16 -2850.1,4515.8C-2845.98,4515.56 -2841.84,4515.45 -2837.72,4515.46Z" style="fill:rgb(173,209,251);fill-rule:nonzero;"/>
                    </g>
                    <g transform="matrix(0.57572,0,0,0.793347,4752.66,-556.544)">
                        <path d="M-2884.76,4521.24C-2879.93,4521.43 -2877.72,4527.08 -2883.17,4528.59L-2919.22,4537.83C-2922.24,4538.53 -2925.71,4537.04 -2926.12,4534.75C-2926.43,4533.04 -2924.96,4531.32 -2922.69,4530.69L-2886.64,4521.46C-2886.03,4521.32 -2885.41,4521.24 -2884.76,4521.24Z" style="fill:rgb(173,209,251);fill-rule:nonzero;"/>
                    </g>
                    <g transform="matrix(0.57572,0,0,0.793347,4752.66,-556.544)">
                        <path d="M-2950.56,4538.21C-2945.68,4538.7 -2945.89,4540.03 -2945.87,4541.94C-2945.84,4543.52 -2946.78,4544.81 -2949.34,4545.54L-3019.13,4563.42C-3023.3,4564.37 -3023.54,4563.74 -3025.18,4561.98C-3026.95,4560.07 -3025.71,4557.18 -3022.6,4556.29L-2952.81,4538.41C-2951.48,4538.11 -2952.09,4538.14 -2950.56,4538.21Z" style="fill:rgb(173,209,251);fill-rule:nonzero;"/>
                    </g>
                    <g transform="matrix(0.57572,0,0,0.793347,4752.66,-573.922)">
                        <path d="M-2574.37,4521.25C-2573.72,4521.29 -2573.56,4521.32 -2572.95,4521.46L-2530.63,4532.3C-2529.11,4532.73 -2528.68,4533.09 -2528.08,4533.72C-2525.66,4536.27 -2528.88,4540.62 -2534.1,4539.43L-2576.41,4528.59C-2580.02,4527.56 -2579.66,4526.71 -2579.86,4525.46C-2580.2,4523.32 -2578.16,4521.35 -2574.73,4521.24C-2574.61,4521.24 -2574.49,4521.25 -2574.37,4521.25Z" style="fill:rgb(173,209,251);fill-rule:nonzero;"/>
                    </g>
                    <g transform="matrix(0.57572,0,0,0.793347,4752.66,-573.922)">
                        <path d="M-2838.17,4515.46C-2834.17,4515.47 -2830.17,4515.59 -2826.18,4515.84C-2822.76,4516.05 -2818.98,4516.6 -2818.2,4518.96C-2817.32,4521.65 -2820.41,4523.84 -2825.68,4523.46C-2845.05,4522.14 -2864.82,4523.91 -2883.18,4528.59C-2883.18,4528.59 -2887.31,4529.13 -2889.17,4527.19C-2891.29,4525 -2889.87,4522.24 -2884.67,4520.97C-2869.68,4517.32 -2853.93,4515.45 -2838.17,4515.46Z" style="fill:rgb(173,209,251);fill-rule:nonzero;"/>
                    </g>
                    <g transform="matrix(0.57572,0,0,0.793347,4752.66,-573.922)">
                        <path d="M-2913.07,4528.61C-2910.14,4528.91 -2909.96,4529.5 -2909.28,4530.23C-2907.46,4532.15 -2908.24,4534.88 -2911.84,4535.93L-3013.27,4561.92C-3016.49,4562.63 -3017.65,4561.8 -3018.73,4561C-3021.17,4559.19 -3020.77,4555.97 -3016.74,4554.79L-2915.31,4528.8C-2914.41,4528.6 -2914.15,4528.56 -2913.07,4528.61Z" style="fill:rgb(173,209,251);fill-rule:nonzero;"/>
                    </g>
                    <g transform="matrix(0.610328,0,0,0.610328,1424.85,1187.7)">
                        <path d="M2911.93,2817.37C2912.78,2817.48 2913.59,2817.78 2914.32,2818.25L2963.11,2852.89C2964.04,2853.61 2964.22,2853.91 2964.55,2854.48C2965.74,2856.6 2965.48,2859.09 2963.11,2860.91L2914.32,2895.54C2910.2,2898.24 2902.99,2891.85 2908.62,2887.53L2951.77,2856.9L2908.62,2826.27C2908.62,2826.27 2906.18,2824.03 2906.62,2821.44C2907.02,2819.1 2908.67,2817.4 2911.56,2817.35C2911.68,2817.35 2911.81,2817.36 2911.93,2817.37Z" style="fill:rgb(173,209,251);fill-rule:nonzero;"/>
                    </g>
                    <g transform="matrix(0.610328,0,0,0.610328,1378.01,1187.7)">
                        <path d="M2911.74,2817.35C2913.1,2817.48 2913.49,2817.71 2914.16,2818.15C2916.82,2819.89 2917.43,2823.87 2914.32,2826.27L2871.17,2856.9L2914.32,2887.53C2914.32,2887.53 2916.76,2889.76 2916.32,2892.36C2915.76,2895.63 2911.99,2897.75 2908.62,2895.54L2859.83,2860.91C2857.92,2859.44 2858.08,2858.89 2857.88,2857.97C2857.46,2856.08 2857.85,2854.41 2859.83,2852.89L2908.62,2818.25C2910.44,2817.07 2910.23,2817.33 2911.74,2817.35Z" style="fill:rgb(173,209,251);fill-rule:nonzero;"/>
                    </g>
                    <g transform="matrix(0.610328,0,0,0.610328,1223.71,1148.13)">
                        <path d="M3216.94,2855.18C3219.85,2855.74 3221.76,2858.72 3220.87,2861.68L3177.23,2985.07C3175.74,2988.7 3169.99,2989.39 3168.16,2985.55C3167.62,2984.43 3167.39,2983.69 3167.96,2981.79L3211.6,2858.4C3212.47,2856.28 3214.51,2854.95 3216.94,2855.18Z" style="fill:rgb(173,209,251);fill-rule:nonzero;"/>
                    </g>
                    <g transform="matrix(0.57572,0,0,0.793347,4752.66,-460.221)">
                        <path d="M-2614.58,4348.59C-2598.22,4348.67 -2581.87,4350.74 -2566.47,4354.66L-2401.35,4396.96C-2400.34,4397.37 -2399.17,4397.64 -2398.01,4399.7L-2341.19,4582.71L-2341.18,4584.31L-2342.07,4585.77L-2343.72,4586.83L-2345.83,4587.31L-2348.01,4587.1C-2422.21,4568.1 -2496.35,4548.97 -2570.6,4530.08C-2625.12,4516.46 -2690.31,4530.72 -2725.16,4565C-2725.16,4565 -2726.43,4566.09 -2726.43,4566.09L-2728.29,4566.82L-2730.38,4566.95L-2732.38,4566.48L-2733.96,4565.47C-2751.25,4548.74 -2776.86,4534.84 -2805.72,4528.66C-2833.04,4522.81 -2862.87,4523.43 -2889.66,4530.25L-3111.57,4587.1L-3116.31,4586.63C-3116.31,4586.63 -3118.39,4582.71 -3118.39,4582.71L-3061.58,4399.7L-3060.92,4398.53C-3059.76,4397.58 -3059.75,4397.57 -3058.23,4396.96C-3002.96,4382.8 -2947.72,4368.55 -2892.41,4354.48C-2836.1,4340.41 -2768.54,4353.48 -2729.79,4388.51C-2703,4364.31 -2660.92,4349.01 -2616.77,4348.59C-2616.04,4348.59 -2615.31,4348.59 -2614.58,4348.59ZM-2615.98,4356.15C-2658.47,4356.4 -2700.24,4372.03 -2725.16,4396.55C-2725.16,4396.55 -2726.43,4397.63 -2726.43,4397.63L-2728.29,4398.36L-2730.38,4398.5L-2732.38,4398.02L-2733.96,4397.01C-2754.51,4377.13 -2786.81,4361.58 -2822.76,4357.4C-2845.07,4354.8 -2868.22,4356.35 -2889.66,4361.8L-3052.05,4403.4L-3106.15,4577.69C-3034.91,4559.44 -2963.71,4541.08 -2892.41,4522.94C-2836.08,4508.86 -2768.51,4521.96 -2729.79,4556.96C-2693.19,4523.91 -2628.19,4508.78 -2570.78,4522.07C-2569.33,4522.4 -2567.9,4522.75 -2566.47,4523.12L-2353.43,4577.69L-2407.54,4403.4C-2461.89,4389.47 -2516.2,4375.46 -2570.6,4361.63C-2585.18,4357.98 -2600.56,4356.12 -2615.98,4356.15Z" style="fill:rgb(68,155,243);fill-rule:nonzero;"/>
                    </g>
                    <g transform="matrix(1.2531,0,0,1.2531,-791.68,-723.876)">
                        <path d="M3058.65,3088.48C3060.76,3090.3 3062.39,3092.91 3064.35,3095.16C3090.72,3125.44 3130.48,3143.7 3171.22,3143.45C3206.9,3143.23 3242.27,3128.75 3268.02,3103.9L3268.8,3103.4L3269.72,3103.23L3270.63,3103.43L3271.4,3103.96L3271.91,3104.75L3272.07,3105.67L3271.87,3106.58C3270.98,3107.87 3269.73,3108.9 3268.55,3109.98C3249.32,3127.64 3225.35,3139.96 3199.85,3145.24C3163.51,3152.75 3124.5,3145.81 3092.99,3125.94C3078.77,3116.98 3066.09,3105.46 3055.89,3092.43C3055.59,3092.05 3055.37,3091.63 3055.16,3091.2L3055.09,3090.27C3055.29,3089.67 3055.41,3088.97 3056.83,3088.26L3057.76,3088.19C3058.05,3088.29 3058.35,3088.39 3058.65,3088.48Z" style="fill:rgb(68,155,243);fill-rule:nonzero;"/>
                    </g>
                    <g transform="matrix(1.2531,0,0,1.2531,-791.68,-723.876)">
                        <path d="M3170.78,2857.65C3203.97,2857.79 3236.89,2869.61 3262.49,2890.64C3292.92,2915.64 3312.42,2953.37 3315.26,2992.54L3315.17,2993.91L3314.71,2994.72L3313.97,2995.29L3313.07,2995.54C3312.15,2995.42 3312.14,2995.41 3311.33,2994.95L3310.76,2994.22C3310.46,2993.1 3310.42,2991.92 3310.32,2990.75C3306.36,2945.51 3279.24,2903.14 3239.43,2880.59C3205.86,2861.58 3164.4,2857.3 3127.53,2869.08C3080.85,2884.01 3043.32,2924.67 3032.9,2973.58C3032.63,2974.85 3032.38,2976.12 3032.14,2977.39L3031.8,2978.26C3031.15,2978.93 3031.14,2978.93 3030.29,2979.3L3029.35,2979.31L3028.49,2978.97L3027.82,2978.31L3027.45,2977.45L3027.44,2976.52C3036.78,2926.14 3074.25,2882.18 3123.45,2865.39C3138.23,2860.35 3153.85,2857.76 3169.5,2857.65C3169.93,2857.65 3170.35,2857.65 3170.78,2857.65Z" style="fill:rgb(68,155,243);fill-rule:nonzero;"/>
                    </g>
                </g>
            </g>
            <g transform="matrix(0.929038,0,0,0.929038,242.438,249.068)">
                <rect x="2880.4" y="2761.25" width="536.078" height="536.078" style="fill:none;"/>
            </g>
        </g>
    </g>
</svg>
