<?xml version="1.0" encoding="UTF-8"?>
<svg width="221px" height="78px" viewBox="0 0 221 78" version="1.1" xmlns="http://www.w3.org/2000/svg" xmlns:xlink="http://www.w3.org/1999/xlink">
    <!-- Generator: Sketch 48.2 (47327) - http://www.bohemiancoding.com/sketch -->
    <title>Group Copy</title>
    <desc>Created with Sketch.</desc>
    <defs></defs>
    <g id="Login" stroke="none" stroke-width="1" fill="none" fill-rule="evenodd" transform="translate(-250.000000, -102.000000)">
        <g id="Group-Copy" transform="translate(250.000000, 102.000000)" fill="#449BF3">
            <g id="Page-1">
                <path d="M219.229481,53.2816113 C218.154704,53.650979 217.986593,53.7393581 217.315407,53.9163677 C216.620926,54.0999194 214.393926,54.5760339 213.425556,53.1759339 C212.452778,51.7697952 212.620259,48.937829 212.606407,47.8133081 L212.606407,36.7027113 L219.206185,36.7027113 L219.206185,30.8303806 L212.608926,30.8303806 L212.608926,15.2518935 L206.230778,16.7410645 L206.229519,30.8303806 L201.307704,30.8303806 L201.307704,36.7027113 L206.229519,36.7027113 L206.229519,51.122521 L206.229519,51.2266258 C206.229519,54.5228177 206.988852,56.9516371 208.474148,58.513021 C209.994074,60.0743419 211.998185,60.9026516 214.552593,60.8376726 C217.801481,60.7550806 219.874222,59.4814161 220.532815,59.1384677 L219.229481,53.2816113 Z" id="Fill-1"></path>
                <path d="M157.717185,30.2984081 C166.153593,30.2984081 173.002704,37.1412726 173.002704,45.5698016 C173.002704,53.9983306 166.153593,60.8411952 157.717185,60.8411952 C149.280778,60.8411952 142.431037,53.9983306 142.431037,45.5698016 C142.431037,37.1412726 149.280778,30.2984081 157.717185,30.2984081 Z M157.717185,36.697679 C162.618222,36.697679 166.597481,40.6731629 166.597481,45.5698016 C166.597481,50.4664403 162.618222,54.4419242 157.717185,54.4419242 C152.815519,54.4419242 148.836259,50.4664403 148.836259,45.5698016 C148.836259,40.6731629 152.815519,36.697679 157.717185,36.697679 Z" id="Fill-2"></path>
                <path d="M131.825556,60.5354226 L118.690852,60.5354226 L118.690852,55.3382323 L121.966815,54.57465 L121.966815,36.7027113 L118.690852,36.7027113 L118.690852,30.8167935 L127.420037,30.8259145 L128.517481,32.9582081 C129.289407,32.4082452 130.114222,31.932571 130.978074,31.5428226 C132.069852,31.0507306 133.222704,30.6965226 134.40263,30.4932194 C134.906333,30.4064129 135.415074,30.3469694 135.925704,30.3149516 C136.176926,30.2992258 136.428148,30.2906081 136.68,30.2876516 C136.743593,30.2871484 136.806556,30.2869597 136.870148,30.2870226 C137.122,30.2882806 137.373852,30.2953258 137.625704,30.3094161 C138.136963,30.3380371 138.646333,30.3942097 139.151296,30.477871 C139.908111,30.6031113 140.562926,30.7894306 140.669333,30.820379 L140.684444,30.820379 L140.684444,38.2074194 L134.133148,38.2074194 L134.133148,36.7129016 C132.27763,37.0494339 130.692222,37.9880758 129.604852,39.3111194 C128.902185,40.1662887 128.518111,41.2386 128.518111,42.3451935 C128.517481,45.480479 128.517481,54.5738323 128.517481,54.5738323 L131.818,55.3365339 L131.825556,55.3365339 L131.825556,55.3381694 L131.825556,55.3382323 L131.825556,60.5310823 L131.825556,60.5354226 Z" id="Fill-3"></path>
                <path d="M102.556593,20.0989645 C102.924926,19.0964129 103.432407,18.2568435 104.076519,17.5801935 C105.595815,16.0188097 107.599926,15.1905 110.154963,15.255479 C113.403222,15.338071 115.475963,16.6117355 116.135185,16.9546839 L114.831222,22.8116032 C113.756444,22.4422355 113.588333,22.3537935 112.917778,22.1767839 C112.222667,21.9932952 109.995667,21.5171177 109.027296,22.9172806 C108.055148,24.3234194 108.22263,27.1553226 108.208148,28.2798435 L108.208778,30.8404452 L114.807926,30.8404452 L114.807926,36.7127129 L108.211296,36.7127129 L108.211296,54.5792419 L111.488519,55.3365339 L111.495444,55.3365339 L111.495444,55.3381694 L111.495444,55.3382323 L111.495444,60.5310823 L111.495444,60.5354226 L98.3613704,60.5354226 L98.3613704,55.3382323 L101.636704,54.57465 L101.636704,36.7127129 L96.9094444,36.7127129 L96.9094444,30.8404452 L101.636704,30.8404452 C101.636704,30.8404452 101.636704,26.9093081 101.636704,25.0842339 C101.636704,23.7147677 101.835037,22.3524726 102.225407,21.0396823 C102.329296,20.7101323 102.438222,20.3960565 102.556593,20.0989645 Z" id="Fill-4"></path>
                <path d="M182.503185,55.1164984 C184.174222,55.3465984 186.097111,55.447621 187.202741,55.447621 C188.97263,55.447621 190.360333,55.1747468 191.365222,54.6289984 C192.370741,54.0831871 192.873185,53.3627565 192.873185,52.4677065 C192.873185,51.5944839 192.468963,50.8958806 191.660519,50.3719597 C190.830037,49.8479758 188.797593,49.1712629 185.563815,48.3416952 C182.329407,47.5120645 179.86063,46.4423952 178.156222,45.1324984 C176.451815,43.8663194 175.588593,41.9997919 175.566556,39.5329161 C175.566556,37.0659774 176.604815,34.9156306 178.680704,33.0818758 C180.756593,31.2480581 184.446222,30.3638274 187.562889,30.2984081 C192.493519,30.1949323 197.424148,30.820379 197.424148,30.820379 L197.424148,38.2074194 L190.873481,38.2074194 L190.873481,35.4717581 C190.258333,35.4153968 189.195519,35.3494742 187.622074,35.3781581 C186.049259,35.4069048 184.623778,35.9963081 183.793926,36.5857113 C182.963444,37.1751774 182.547889,37.8846629 182.547889,38.7142306 C182.547889,39.5437984 182.996185,40.2205742 183.892148,40.7444952 C184.788111,41.2684161 186.798519,41.9670194 189.92337,42.8403048 C193.047593,43.6698726 195.484259,44.6958871 197.232741,45.9184113 C198.980593,47.1409355 199.854519,49.0948355 199.854519,51.7800484 C199.854519,54.4870887 198.652556,56.6810903 196.249259,58.3620532 C193.876815,60.0212516 190.981148,60.8510081 187.565407,60.8511968 C181.405111,60.9804629 175.951889,59.5046274 175.951889,59.5046274 L175.951889,52.3669355 L182.503185,52.3669355 L182.503185,55.1164984 Z" id="Fill-5"></path>
                <path d="M46.7403037,0 L46.7449,3.18730645 L46.7449,27.5891661 L39.815637,34.5118548 L39.815637,38.7678242 L37.7672,38.7678242 L37.7672,34.4718484 L30.8780444,27.589229 L30.8646333,0.0345967742 L38.783737,7.94908065 L46.7403037,0 Z M44.6205926,21.86145 L39.815637,26.6618468 L39.815637,31.5104903 L44.6205926,26.7100935 L44.6205926,21.86145 Z M33.0023519,26.7100935 L37.7672,31.4704839 L37.7672,26.6238532 L33.0023519,21.8635258 L33.0023519,26.7100935 Z M44.6205926,13.4883387 L39.815637,18.2886726 L39.815637,23.7676694 L44.6205926,18.9672726 L44.6205926,13.4883387 Z M33.0023519,18.9693484 L37.7672,23.7297387 L37.7672,18.3037694 L33.0023519,13.5436935 L33.0023519,18.9693484 Z M33.0023519,10.6495161 L37.7672,15.4095919 L37.7672,9.82737097 L33.0023519,5.06685484 L33.0023519,10.6495161 Z M44.6205926,5.0115 L39.815637,9.81227419 L39.815637,15.3944952 L44.6205926,10.5941613 L44.6205926,5.0115 Z" id="Fill-6"></path>
                <path d="M30.8692926,77.5357742 L30.8646333,74.3481532 L30.8646333,49.9464823 L37.7938963,43.0237935 L37.7938963,38.7678242 L39.8423333,38.7678242 L39.8423333,43.0638 L46.7314889,49.9464194 L46.7449,77.5008 L38.8258593,69.5867565 L30.8692926,77.5357742 Z M32.9889407,55.6741984 L37.7938963,50.8738016 L37.7938963,46.0250952 L32.9889407,50.8254919 L32.9889407,55.6741984 Z M44.6071815,50.8254919 L39.8423333,46.0651645 L39.8423333,50.9117323 L44.6071815,55.6721226 L44.6071815,50.8254919 Z M32.9889407,64.0473726 L37.7938963,59.2469758 L37.7938963,53.7679161 L32.9889407,58.5683129 L32.9889407,64.0473726 Z M44.6071815,58.5662371 L39.8423333,53.8059097 L39.8423333,59.231879 L44.6071815,63.9922065 L44.6071815,58.5662371 Z M44.6071815,66.8863839 L39.8423333,62.1260565 L39.8423333,67.7084661 L44.6071815,72.4687935 L44.6071815,66.8863839 Z M32.9889407,72.5239597 L37.7938963,67.7235629 L37.7938963,62.1411532 L32.9889407,66.94155 L32.9889407,72.5239597 Z" id="Fill-7"></path>
                <path d="M77.6094074,46.6957694 L74.4190741,46.7004242 L49.9940407,46.7004242 L43.0647778,39.7777355 L38.8047667,39.7777355 L38.8047667,37.7312419 L43.1048222,37.7312419 L49.9939778,30.8486226 L77.5747778,30.8352242 L69.6527778,38.7467516 L77.6094074,46.6957694 Z M55.7271963,44.5781323 L50.9222407,39.7777355 L46.0689926,39.7777355 L50.8739481,44.5781323 L55.7271963,44.5781323 Z M50.8739481,32.9709145 L46.109037,37.7312419 L50.9602704,37.7312419 L55.7251185,32.9709145 L50.8739481,32.9709145 Z M64.1082593,44.5781323 L59.3033667,39.7777355 L53.8191667,39.7777355 L58.6241222,44.5781323 L64.1082593,44.5781323 Z M58.6220444,32.9709145 L53.8571333,37.7312419 L59.2882556,37.7312419 L64.0528519,32.9709145 L58.6220444,32.9709145 Z M66.9497778,32.9709145 L62.1851815,37.7312419 L67.7727037,37.7312419 L72.5377407,32.9709145 L66.9497778,32.9709145 Z M72.5931481,44.5781323 L67.7878148,39.7777355 L62.2002926,39.7777355 L67.0051852,44.5781323 L72.5931481,44.5781323 Z" id="Fill-8"></path>
                <path d="M0,30.8398161 L3.19064815,30.8352242 L27.6154926,30.8352242 L34.5447556,37.7579129 L38.8047667,37.7579129 L38.8047667,39.8044065 L34.5047111,39.8044065 L27.6155556,46.6870258 L0.0350074074,46.7004242 L7.95656667,38.7888339 L0,30.8398161 Z M21.882337,32.9575161 L26.6872926,37.7579129 L31.5406037,37.7579129 L26.7356481,32.9575161 L21.882337,32.9575161 Z M26.7356481,44.5647339 L31.5004963,39.8044065 L26.6493259,39.8044065 L21.8844148,44.5647339 L26.7356481,44.5647339 Z M13.5012111,32.9575161 L18.3061667,37.7579129 L23.7904296,37.7579129 L18.9854741,32.9575161 L13.5012111,32.9575161 Z M18.9875519,44.5647339 L23.7524,39.8044065 L18.3212778,39.8044065 L13.5564296,44.5647339 L18.9875519,44.5647339 Z M10.6595037,44.5647339 L15.4243519,39.8044065 L9.83664074,39.8044065 L5.07179259,44.5647339 L10.6595037,44.5647339 Z M5.01657407,32.9575161 L9.82152963,37.7579129 L15.4092407,37.7579129 L10.6042852,32.9575161 L5.01657407,32.9575161 Z" id="Fill-9"></path>
                <path d="M71.8552222,16.9606597 L69.6024074,19.217879 L63.8135926,25.00095 L52.5551222,25.00095 L52.5551222,13.8311613 L60.6046222,5.7701129 L60.6028593,16.9606597 L71.8552222,16.9606597 Z M63.8135926,25.00095 L52.5551222,25.00095 L63.8135926,25.00095 Z M52.5551222,13.8198387 L52.5551222,25.00095 L52.5551222,13.8198387 Z M54.6035593,14.7859065 L54.6035593,21.5180613 L58.5546741,17.5707581 L58.5546741,10.8388548 L54.6035593,14.7859065 Z M66.8087407,19.0071532 L60.0137778,19.0071532 L56.0627259,22.9544565 L62.8579407,22.9544565 L66.8087407,19.0071532 Z" id="Fill-10"></path>
                <path d="M5.75437407,60.5534758 L8.00725185,58.2962565 L13.7958148,52.5131855 L25.0544111,52.5131855 L25.0544111,63.6830371 L17.0049111,71.7438339 L17.0066741,60.5534758 L5.75437407,60.5534758 Z M13.7958148,52.5131855 L25.0544111,52.5131855 L13.7958148,52.5131855 Z M25.0544111,63.694171 L25.0544111,52.5131855 L25.0544111,63.694171 Z M23.0059741,62.7281661 L23.0059741,55.9960113 L19.0548593,59.9433774 L19.0548593,66.6755323 L23.0059741,62.7281661 Z M10.8005407,58.5069823 L17.5957556,58.5069823 L21.5468704,54.5596161 L14.7515926,54.5596161 L10.8005407,58.5069823 Z" id="Fill-11"></path>
                <path d="M16.9554222,5.74872581 L19.2147852,7.99940323 L25.0033481,13.7827258 L25.0033481,25.0305145 L13.8228259,25.0305145 L5.75437407,16.9886516 L16.9554222,16.9904129 L16.9554222,5.74872581 Z M25.0033481,13.7827258 L25.0033481,25.0305145 L25.0033481,13.7827258 Z M13.8116815,25.0305145 L25.0033481,25.0305145 L13.8116815,25.0305145 Z M14.7786037,22.984021 L21.5171519,22.984021 L17.566037,19.0366548 L10.8274889,19.0366548 L14.7786037,22.984021 Z M19.0037963,10.7904194 L19.0037963,17.5789355 L22.9549111,21.5262387 L22.9549111,14.737471 L19.0037963,10.7904194 Z" id="Fill-12"></path>
                <path d="M60.6541741,71.7653468 L58.3948111,69.5146065 L52.6062481,63.7315355 L52.6062481,52.483621 L63.7865185,52.483621 L71.8552222,60.5254839 L60.6541741,60.5237226 L60.6541741,71.7653468 Z M52.6062481,63.7315355 L52.6062481,52.483621 L52.6062481,63.7315355 Z M63.7978519,52.483621 L52.6062481,52.483621 L63.7978519,52.483621 Z M62.8309296,54.5301145 L56.0923815,54.5301145 L60.0434963,58.4774806 L66.7822963,58.4774806 L62.8309296,54.5301145 Z M58.605737,66.7240306 L58.605737,59.9352 L54.6546222,55.9878339 L54.6546222,62.7766645 L58.605737,66.7240306 Z" id="Fill-13"></path>
            </g>
        </g>
    </g>
</svg>