<?xml version="1.0" encoding="UTF-8"?>
<svg width="380px" height="380px" viewBox="0 0 380 380" version="1.1" xmlns="http://www.w3.org/2000/svg" xmlns:xlink="http://www.w3.org/1999/xlink">
    <!-- Generator: Sketch 48.2 (47327) - http://www.bohemiancoding.com/sketch -->
    <title>Group</title>
    <desc>Created with Sketch.</desc>
    <defs></defs>
    <g id="Home" stroke="none" stroke-width="1" fill="none" fill-rule="evenodd" transform="translate(-811.000000, -208.000000)">
        <g id="Group" transform="translate(811.000000, 208.000000)" fill="#449BF3">
            <path d="M228.977424,0 L229,15.6239555 L229,135.214421 L194.965149,169.141341 L194.965149,190 L184.903725,190 L184.903725,168.947121 L151.065872,135.214421 L151,0.172640392 L189.896708,38.9581542 L228.977424,0 Z M218.56592,107.144943 L194.965149,130.67028 L194.965149,154.432996 L218.56592,130.90766 L218.56592,107.144943 Z M161.499952,130.90766 L184.903725,154.235693 L184.903725,130.485308 L161.499952,107.154192 L161.499952,130.90766 Z M218.56592,66.1058558 L194.965149,89.634275 L194.965149,116.486022 L218.56592,92.9606854 L218.56592,66.1058558 Z M161.499952,92.969934 L184.903725,116.30105 L184.903725,89.7082637 L161.499952,66.3771479 L161.499952,92.969934 Z M161.499952,52.1928899 L184.903725,75.5240058 L184.903725,48.1635865 L161.499952,24.8324707 L161.499952,52.1928899 Z M218.56592,24.5642615 L194.965149,48.0895978 L194.965149,75.450017 L218.56592,51.9215979 L218.56592,24.5642615 Z" id="Fill-6"></path>
            <path d="M151.022885,380 L151,364.377713 L151,244.788217 L185.034851,210.85849 L185.034851,190 L195.096275,190 L195.096275,211.055791 L228.934128,244.785134 L229,379.828286 L190.103602,341.042162 L151.022885,380 Z M161.43408,272.857776 L185.034851,249.332322 L185.034851,225.569798 L161.43408,249.094943 L161.43408,272.857776 Z M218.500048,249.094943 L195.096275,225.764017 L195.096275,249.517292 L218.500048,272.847602 L218.500048,249.094943 Z M161.43408,313.894372 L185.034851,290.367994 L185.034851,263.51554 L161.43408,287.041918 L161.43408,313.894372 Z M218.500048,287.031745 L195.096275,263.701743 L195.096275,290.294006 L218.500048,313.624007 L218.500048,287.031745 Z M218.500048,327.80815 L195.096275,304.47784 L195.096275,331.836804 L218.500048,355.167114 L218.500048,327.80815 Z M161.43408,355.437171 L185.034851,331.910792 L185.034851,304.551828 L161.43408,328.078207 L161.43408,355.437171 Z" id="Fill-7"></path>
            <path d="M380,228.978351 L364.379102,229 L244.786284,229 L210.858384,194.965267 L190,194.965267 L190,184.901749 L211.054455,184.901749 L244.785976,151.064946 L379.830442,151 L341.041783,189.896396 L380,228.978351 Z M272.857657,218.565362 L249.33105,194.965267 L225.567986,194.965267 L249.094594,218.565362 L272.857657,218.565362 Z M249.094594,161.499584 L225.764057,184.901749 L249.517255,184.901749 L272.847484,161.499584 L249.094594,161.499584 Z M313.894037,218.565362 L290.367738,194.965267 L263.515331,194.965267 L287.041938,218.565362 L313.894037,218.565362 Z M287.031765,161.499584 L263.701228,184.901749 L290.293749,184.901749 L313.622744,161.499584 L287.031765,161.499584 Z M327.807025,161.499584 L304.47803,184.901749 L331.836335,184.901749 L355.167489,161.499584 L327.807025,161.499584 Z M355.438782,218.565362 L331.910324,194.965267 L304.552019,194.965267 L328.078318,218.565362 L355.438782,218.565362 Z" id="Fill-8"></path>
            <path d="M0,151.021649 L15.6223887,151 L135.213894,151 L169.141683,185.034733 L190,185.034733 L190,195.095159 L168.945613,195.095159 L135.214202,228.935054 L0.171406968,229 L38.9577827,190.103604 L0,151.021649 Z M107.142611,161.431545 L130.669143,185.034733 L154.432438,185.034733 L130.905906,161.431545 L107.142611,161.431545 Z M130.905906,218.500416 L154.236059,195.095159 L130.483246,195.095159 L107.152785,218.500416 L130.905906,218.500416 Z M66.1060568,161.431545 L89.6325881,185.034733 L116.485216,185.034733 L92.9586848,161.431545 L66.1060568,161.431545 Z M92.9688583,218.500416 L116.299011,195.095159 L89.7065767,195.095159 L66.3764236,218.500416 L92.9688583,218.500416 Z M52.1921887,218.500416 L75.5223418,195.095159 L48.1632001,195.095159 L24.833047,218.500416 L52.1921887,218.500416 Z M24.5626802,161.431545 L48.0892115,185.034733 L75.4483532,185.034733 L51.9218219,161.431545 L24.5626802,161.431545 Z" id="Fill-9"></path>
            <path d="M351,80.117166 L340.144524,91.0318592 L312.250379,119 L258,119 L258,64.9801779 L296.787545,26 L296.77905,80.117166 L351,80.117166 Z M312.250379,119 L258,119 L312.250379,119 Z M258,64.928464 L258,119 L258,64.928464 Z M267.870656,69.5979327 L267.870656,102.15645 L286.909608,83.0648633 L286.909608,50.5093877 L267.870656,69.5979327 Z M326.682884,90.0127895 L293.940486,90.0127895 L274.901837,109.101335 L307.645449,109.101335 L326.682884,90.0127895 Z" id="Fill-10"></path>
            <path d="M26,296.882961 L36.8558151,285.967015 L64.748837,258 L119,258 L119,312.017869 L80.2123283,351 L80.2208234,296.882961 L26,296.882961 Z M64.748837,258 L119,258 L64.748837,258 Z M119,312.071713 L119,258 L119,312.071713 Z M109.129312,307.400099 L109.129312,274.843301 L90.0902979,293.932821 L90.0902979,326.48962 L109.129312,307.400099 Z M50.3156787,286.986393 L83.0593971,286.986393 L102.098411,267.896873 L69.3543895,267.896873 L50.3156787,286.986393 Z" id="Fill-11"></path>
            <path d="M80.1170388,26 L91.0329845,36.8555117 L119,64.7467132 L119,119 L64.9821306,119 L26,80.2108113 L80.1170388,80.2199132 L80.1170388,26 Z M119,64.7467132 L119,119 L119,64.7467132 Z M64.9282871,119 L119,119 L64.9282871,119 Z M69.5999006,109.127492 L102.156699,109.127492 L83.0671793,90.0893877 L50.5103804,90.0893877 L69.5999006,109.127492 Z M90.0136073,50.3141617 L90.0136073,83.0566666 L109.103127,102.097804 L109.103127,69.3522657 L90.0136073,50.3141617 Z" id="Fill-12"></path>
            <path d="M296.882961,351 L285.967015,340.144453 L258,312.251037 L258,258 L312.016653,258 L351,296.787495 L296.882961,296.779 L296.882961,351 Z M258,312.251037 L258,258 L258,312.251037 Z M312.071409,258 L258,258 L312.071409,258 Z M307.399795,267.870417 L274.842996,267.870417 L293.932516,286.909493 L326.490532,286.909493 L307.399795,267.870417 Z M286.986089,326.684545 L286.986089,293.94072 L267.896568,274.901644 L267.896568,307.645469 L286.986089,326.684545 Z" id="Fill-13"></path>
        </g>
    </g>
</svg>