<?xml version="1.0" encoding="UTF-8" standalone="no"?>
<!DOCTYPE svg PUBLIC "-//W3C//DTD SVG 1.1//EN" "http://www.w3.org/Graphics/SVG/1.1/DTD/svg11.dtd">
<svg width="100%" height="100%" viewBox="0 0 447 388" version="1.1" xmlns="http://www.w3.org/2000/svg" xmlns:xlink="http://www.w3.org/1999/xlink" xml:space="preserve" xmlns:serif="http://www.serif.com/" style="fill-rule:evenodd;clip-rule:evenodd;stroke-linejoin:round;stroke-miterlimit:1.41421;">
    <g transform="matrix(1,0,0,1,-412.136,-435.432)">
        <g transform="matrix(1,0,0,1,770.16,287.284)">
            <g transform="matrix(1,0,0,1,-5762.03,-2728.57)">
                <g>
                    <g transform="matrix(1.2531,0,0,1.2531,1663.05,-680.31)">
                        <circle cx="3170.33" cy="3002.95" r="142.903" style="fill:white;"/>
                    </g>
                    <path d="M5791.75,3170.69L5727.25,3207.93C5720.09,3212.07 5711.27,3212.07 5704.12,3207.93C5678.94,3193.4 5619.77,3159.23 5598.85,3147.16C5597.3,3146.27 5596.35,3144.62 5596.35,3142.84C5596.35,3141.05 5597.3,3139.41 5598.85,3138.51C5619.77,3126.44 5678.94,3092.27 5704.12,3077.74C5711.27,3073.61 5720.09,3073.61 5727.25,3077.74L5809.74,3125.36C5805.8,3141.43 5799.69,3156.65 5791.75,3170.69Z" style="fill:rgb(54,176,116);fill-opacity:0.5;"/>
                    <g transform="matrix(1.2531,0,0,1.2531,1663.05,-680.31)">
                        <path d="M3170.8,2857.65C3207.58,2857.82 3244.25,2872.55 3270.87,2898.09C3298.95,2925.03 3315.44,2963.52 3315.63,3002.48L3315.63,3002.94C3315.45,3003.85 3315.44,3003.86 3314.93,3004.64L3314.15,3005.16L3313.24,3005.34L3312.32,3005.16C3311.55,3004.64 3311.54,3004.64 3311.02,3003.87L3310.84,3002.95C3310.78,2961.76 3291.94,2921.79 3260.98,2895.62C3225.36,2865.5 3174.39,2854.65 3128.98,2868.63C3089.23,2880.87 3055.72,2911.59 3040.05,2950.25C3022.58,2993.36 3028.3,3045.16 3055.27,3083.57C3078.12,3116.1 3115.15,3138.32 3155.09,3142.64C3188.24,3146.22 3222.59,3137.59 3250,3118.67C3272.49,3103.15 3290.38,3080.76 3300.61,3055.65L3301.12,3054.87L3301.89,3054.35L3302.81,3054.16C3303.72,3054.34 3303.73,3054.34 3304.51,3054.85L3305.03,3055.63C3305.3,3056.96 3304.69,3058.34 3304.14,3059.63C3285,3104.71 3242.27,3138.6 3193.41,3146.42C3150.43,3153.29 3104.67,3139.75 3072.34,3110.18C3038.21,3078.99 3020.26,3031.1 3026.2,2984.45C3030.91,2947.47 3050.63,2912.53 3079.96,2889.2C3105.12,2869.18 3137.12,2857.91 3169.39,2857.65C3169.86,2857.65 3170.33,2857.65 3170.8,2857.65Z" style="fill:rgb(54,176,116);fill-rule:nonzero;"/>
                    </g>
                </g>
                <g>
                    <g transform="matrix(2.35612,0,0,2.35612,-8974.16,-1799.78)">
                        <path d="M6229.84,1987.42C6232.88,1985.67 6236.62,1985.67 6239.65,1987.42C6250.21,1993.52 6274.99,2007.82 6285.55,2013.91C6288.58,2015.67 6290.45,2018.91 6290.45,2022.42C6290.45,2034.61 6290.45,2063.21 6290.45,2075.41C6290.45,2078.91 6288.58,2082.16 6285.55,2083.91C6274.99,2090.01 6250.21,2104.31 6239.65,2110.4C6236.62,2112.16 6232.88,2112.16 6229.84,2110.4C6219.28,2104.31 6194.51,2090.01 6183.95,2083.91C6180.91,2082.16 6179.04,2078.91 6179.04,2075.41C6179.04,2063.21 6179.04,2034.61 6179.04,2022.42C6179.04,2018.91 6180.91,2015.67 6183.95,2013.91C6194.51,2007.82 6219.28,1993.52 6229.84,1987.42Z" style="fill:white;"/>
                    </g>
                    <g transform="matrix(0.344784,0,0,0.344784,5637.87,3062.77)">
                        <path d="M0,-150.185C0,-158.392 -5.807,-168.406 -12.958,-172.535L-38.874,-187.498C-46.026,-191.626 -51.832,-188.317 -51.832,-180.11L-51.832,0C-51.832,8.206 -46.026,18.22 -38.874,22.35L-12.958,37.312C-5.807,41.441 0,38.131 0,29.925L0,-150.185Z" style="fill:rgb(155,216,186);"/>
                    </g>
                    <g transform="matrix(0.344784,0,0,0.344784,5675.31,3084.38)">
                        <path d="M0,-150.183C0,-158.39 -5.807,-168.404 -12.958,-172.533L-38.874,-187.496C-46.025,-191.625 -51.833,-188.315 -51.833,-180.109L-51.833,0.001C-51.833,8.208 -46.025,18.222 -38.874,22.351L-12.958,37.314C-5.807,41.442 0,38.133 0,29.926L0,-150.183Z" style="fill:rgb(155,216,186);"/>
                    </g>
                    <g transform="matrix(0.344784,0,0,0.344784,5658.26,3102.9)">
                        <path d="M0,28.299C0,8.802 -13.774,-14.955 -30.765,-24.765L-30.766,-24.765C-47.757,-34.576 -61.531,-26.722 -61.531,-7.225L-61.531,23.08C-61.531,24.815 -60.93,26.825 -59.861,28.669C-58.792,30.513 -57.342,32.039 -55.831,32.912C-44.109,39.679 -17.422,55.087 -5.7,61.855C-4.188,62.728 -2.739,62.875 -1.67,62.266C-0.6,61.656 0,60.34 0,58.605L0,28.299Z" style="fill:rgb(155,216,186);"/>
                    </g>
                    <g transform="matrix(0.972835,0,0,0.972835,-556.089,1100.64)">
                        <path d="M6269.49,2012.71C6273.81,2010.22 6279.14,2010.22 6283.47,2012.71C6287.79,2015.21 6290.45,2019.82 6290.45,2024.82C6290.45,2035.48 6290.45,2054.42 6290.45,2067.35C6290.45,2075.84 6285.92,2083.69 6278.57,2087.94C6267.37,2094.4 6250.97,2103.87 6241.73,2109.2C6237.41,2111.7 6232.08,2111.7 6227.76,2109.2C6223.43,2106.71 6220.77,2102.09 6220.77,2097.1C6220.77,2086.44 6220.77,2067.5 6220.77,2054.57C6220.77,2046.08 6225.3,2038.23 6232.66,2033.98C6243.86,2027.51 6260.26,2018.05 6269.49,2012.71Z" style="fill:white;"/>
                    </g>
                    <g transform="matrix(0.972835,0,0,0.972835,-556.089,1100.64)">
                        <path d="M6289.14,2016.5C6289.41,2016.34 6289.74,2016.34 6290.01,2016.5L6290.02,2016.5C6290.29,2016.65 6290.45,2016.94 6290.45,2017.26C6290.45,2021.39 6290.45,2049.86 6290.45,2067.35C6290.45,2075.84 6285.92,2083.69 6278.57,2087.94C6266.28,2095.03 6247.75,2105.73 6239.27,2110.62C6236.47,2112.24 6233.02,2112.24 6230.22,2110.62C6224.6,2107.38 6221.77,2100.85 6223.22,2094.54C6225.61,2084.2 6229.2,2068.62 6231.54,2058.48C6233.03,2052.05 6237.11,2046.53 6242.82,2043.24C6257.47,2034.78 6285.32,2018.7 6289.14,2016.5Z" style="fill:rgb(155,216,186);"/>
                    </g>
                    <g transform="matrix(2.35612,0,0,2.35612,-8974.16,-1799.78)">
                        <path d="M6234.84,1984.83C6236.71,1984.86 6238.57,1985.35 6240.21,1986.27C6255.6,1995.07 6270.94,2003.94 6286.26,2012.86C6289.51,2014.79 6291.64,2018.39 6291.73,2022.23L6291.73,2022.32C6291.83,2040.05 6291.83,2057.78 6291.73,2075.5C6291.68,2079.28 6289.59,2082.98 6286.26,2084.96C6270.94,2093.88 6255.6,2102.76 6240.21,2111.55C6236.88,2113.43 6232.64,2113.44 6229.28,2111.55C6213.89,2102.76 6198.55,2093.88 6183.23,2084.96C6179.98,2083.03 6177.85,2079.43 6177.77,2075.59L6177.77,2075.5C6177.66,2057.78 6177.66,2040.05 6177.77,2022.32C6177.81,2018.5 6179.9,2014.84 6183.23,2012.86C6198.55,2003.94 6213.89,1995.07 6229.28,1986.27C6230.97,1985.33 6232.91,1984.83 6234.84,1984.83ZM6234.68,1987.38C6233.23,1987.4 6231.8,1987.78 6230.54,1988.49C6215.16,1997.27 6199.83,2006.14 6184.52,2015.05C6181.99,2016.56 6180.35,2019.38 6180.31,2022.35C6180.2,2040.06 6180.2,2057.77 6180.31,2075.48C6180.35,2078.41 6181.95,2081.24 6184.52,2082.77C6199.83,2091.68 6215.16,2100.55 6230.54,2109.34C6233.1,2110.78 6236.39,2110.78 6238.95,2109.34C6254.33,2100.55 6269.66,2091.68 6284.97,2082.77C6287.5,2081.27 6289.14,2078.48 6289.18,2075.48C6289.29,2057.77 6289.29,2040.06 6289.18,2022.35C6289.14,2019.4 6287.54,2016.58 6284.97,2015.05C6269.66,2006.14 6254.33,1997.27 6238.95,1988.49C6237.65,1987.76 6236.17,1987.37 6234.68,1987.38Z" style="fill:rgb(54,176,116);fill-rule:nonzero;"/>
                    </g>
                    <g transform="matrix(2.35612,0,0,2.35612,-9105.41,-1723.28)">
                        <path d="M6240.78,1986.74C6240.89,1986.76 6240.99,1986.75 6241.32,1986.91C6256.96,1995.94 6272.62,2004.93 6288.24,2014C6290.33,2015.24 6291.69,2017.58 6291.73,2020.04L6291.73,2065.66C6291.65,2066.72 6290.25,2067.31 6289.52,2066.53C6289.31,2066.3 6289.2,2065.99 6289.18,2065.66C6289.18,2050.45 6289.41,2035.23 6289.18,2020.02C6289.15,2018.48 6288.28,2016.99 6286.95,2016.2L6240.05,1989.12C6240.05,1989.12 6239.41,1988.65 6239.41,1988.01C6239.41,1987.33 6239.98,1986.74 6240.78,1986.74Z" style="fill:rgb(54,176,116);fill-rule:nonzero;"/>
                    </g>
                    <g transform="matrix(-2.35612,0,0,2.35612,20536.8,-1723.28)">
                        <path d="M6240.61,1986.74C6239.5,1986.87 6239.01,1988.44 6240.05,1989.12L6284.19,2014.6C6285.09,2015.06 6286.31,2014.25 6286.07,2013.21C6285.99,2012.89 6285.92,2012.7 6285.47,2012.4L6241.32,1986.91C6241.05,1986.77 6240.96,1986.74 6240.61,1986.74Z" style="fill:rgb(54,176,116);fill-rule:nonzero;"/>
                    </g>
                    <g transform="matrix(1,0,0,1,5716.48,2956.82)">
                        <path d="M31.829,-43.574C38.018,-43.498 44.252,-42.257 49.669,-39.249C49.669,-39.249 61.677,-32.141 57.566,-22.313C56.137,-18.895 53.234,-16.296 50.032,-14.424L34.232,-5.301C33.255,-4.806 33.493,-4.927 32.667,-4.9L-31.85,-6.296C-37.5,-3.026 -43.173,0.205 -48.801,3.514C-49.597,3.992 -49.653,4.044 -50.012,4.299C-52.279,5.911 -54.356,8.249 -54.016,11.114C-53.659,14.128 -50.979,16.252 -48.563,17.691C-47.32,18.432 -46.891,18.587 -46.042,18.949C-37.076,22.761 -25.92,22.36 -17.888,17.903C-13.8,15.567 -9.732,13.196 -5.654,10.842L-1.66,8.536L-1.713,0.675C-1.585,-1.71 1.439,-3.197 3.261,-1.604C3.861,-1.08 4.197,-0.701 4.287,0.634L4.352,10.241C4.268,11.869 4.127,12.02 2.852,12.859C-6.467,18.24 -15.451,24.985 -25.474,26.753C-35.523,28.527 -46.539,27.285 -54.44,20.923C-58.704,17.49 -61.44,11.458 -59.115,6.014C-57.683,2.66 -54.793,0.077 -51.629,-1.784L-34.127,-11.91C-33.717,-12.118 -33.575,-12.279 -32.56,-12.312L31.958,-10.916C37.043,-13.853 42.144,-16.763 47.213,-19.726C48.008,-20.202 48.064,-20.255 48.423,-20.509C50.775,-22.176 52.851,-24.694 52.399,-27.515C51.942,-30.372 49.453,-32.395 47.108,-33.8C47.108,-33.8 41.852,-36.407 37.294,-37.124C30.065,-38.262 22.289,-37.471 16.153,-33.968L2.947,-26.343L3,-17.774C3,-17.774 2.824,-16.07 1.72,-15.297C-0.067,-14.047 -2.814,-14.949 -3,-17.737L-3.064,-28.05C-2.979,-29.677 -2.838,-29.828 -1.564,-30.667L13.165,-39.172C18.77,-42.37 25.298,-43.607 31.829,-43.574Z" style="fill:rgb(155,216,186);fill-rule:nonzero;"/>
                    </g>
                    <g transform="matrix(0.344784,0,0,0.344784,5637.87,3062.77)">
                        <path d="M-44.272,-197.971C-41.036,-197.858 -37.902,-196.848 -35.026,-195.317C-15.708,-184.42 7.186,-174.826 8.647,-151.903C8.676,-151.451 8.68,-151.214 8.695,-150.763C9.363,-90.521 8.701,-30.272 8.701,29.974C8.567,41.842 -3.753,52.107 -16.805,45.131C-30.822,37.258 -46.882,30.794 -54.697,18.492C-58.09,13.15 -60.316,6.968 -60.527,0.578C-61.195,-59.664 -60.533,-119.913 -60.533,-180.159C-60.431,-189.234 -54.804,-198.131 -44.272,-197.971ZM-43.131,-0.048C-43.065,5.863 -39.589,11.816 -34.482,14.838L-8.701,29.723C-8.701,-30.311 -8.038,-90.349 -8.704,-150.379C-8.898,-156.227 -12.327,-162.063 -17.343,-165.019L-43.131,-179.909C-43.131,-119.955 -43.131,-60.002 -43.131,-0.048Z" style="fill:rgb(54,176,116);fill-rule:nonzero;"/>
                    </g>
                    <g transform="matrix(0.344784,0,0,0.344784,5675.31,3084.38)">
                        <path d="M-44.27,-197.97C-41.026,-197.856 -37.891,-196.846 -35.02,-195.311C-15.443,-184.268 7.911,-174.507 8.695,-150.761C9.365,-90.519 8.701,-30.27 8.701,29.975C8.568,41.8 -3.736,52.089 -16.806,45.133C-36.339,34.115 -59.744,24.329 -60.528,0.579C-61.197,-59.663 -60.534,-119.912 -60.534,-180.158C-60.436,-188.834 -54.609,-197.48 -45.432,-197.958C-45.044,-197.972 -44.658,-197.976 -44.27,-197.97ZM-43.132,-0.047C-43.066,5.887 -39.582,11.821 -34.483,14.839L-8.701,29.725C-8.701,-30.309 -8.037,-90.347 -8.704,-150.377C-8.898,-156.265 -12.32,-162.044 -17.349,-165.021L-43.132,-179.907C-43.132,-119.953 -43.132,-60 -43.132,-0.047Z" style="fill:rgb(54,176,116);fill-rule:nonzero;"/>
                    </g>
                    <g transform="matrix(0.344784,0,0,0.344784,5658.26,3102.9)">
                        <path d="M-43.89,-37.684C-37.728,-37.475 -31.74,-35.364 -26.454,-32.322C-26.442,-32.315 -20.725,-28.715 -17.351,-25.766C-1.988,-12.341 8.394,7.418 8.698,27.754C8.75,38.048 8.701,48.342 8.701,58.636C8.641,67.05 -0.828,74.347 -9.756,69.557C-26.754,59.952 -43.684,50.227 -60.478,40.272C-73.532,32.207 -70.324,10.895 -70.23,-7.779C-69.978,-21.92 -61.798,-37.077 -45.345,-37.681C-44.859,-37.691 -44.375,-37.691 -43.89,-37.684ZM-44.681,-20.289C-50.951,-20.169 -52.747,-12.117 -52.828,-7.581C-52.88,2.647 -54.485,13.011 -52.82,23.103C-52.624,24.163 -51.437,25.402 -51.437,25.402L-8.702,50.075C-8.702,25.66 -10.968,-0.936 -32.898,-15.836C-36.498,-18.282 -40.129,-20.297 -44.681,-20.289Z" style="fill:rgb(54,176,116);fill-rule:nonzero;"/>
                    </g>
                    <g transform="matrix(1,0,0,1,5791.33,3082.19)">
                        <path d="M32.892,-55.474C37.026,-55.418 40.982,-53.205 43.097,-49.304C48.583,-39.19 43.141,-25.652 35.722,-16.608C33.168,-13.493 30.141,-10.735 26.662,-8.695L10.76,0.485C9.275,1.236 8.994,1.191 7.622,0.4L-22.486,-19.223C-27.891,-16.096 -33.313,-12.997 -38.701,-9.839C-39.861,-9.143 -40.127,-8.933 -40.788,-8.435C-49.818,-1.622 -56.496,10.503 -53.414,20.914C-52.48,24.068 -48.946,26.333 -45.305,25.389C-43.966,25.042 -42.704,24.46 -41.506,23.776L-24.548,13.985L-14.576,-3.215C-14.576,-3.215 -13.603,-4.501 -12.423,-4.677C-10.24,-5.002 -8.283,-2.38 -9.386,-0.205L-19.759,17.687C-19.999,18.055 -20.04,18.252 -20.854,18.78L-38.519,28.98C-44.13,32.181 -52.135,33.19 -56.75,27.388C-62.529,20.122 -59.967,8.433 -55.196,-0.348C-51.939,-6.343 -47.382,-11.706 -41.522,-15.14L-23.895,-25.34C-22.41,-26.093 -22.127,-26.047 -20.754,-25.256L9.355,-5.632C14.185,-8.42 19.033,-11.177 23.843,-13.998C24.931,-14.648 25.143,-14.818 25.74,-15.258C34.51,-21.726 41.075,-32.89 38.763,-43.802C38.179,-46.557 36.163,-49.385 32.961,-49.472C30.761,-49.532 28.598,-48.662 26.647,-47.548L12.53,-39.398L2.595,-22.262C2.595,-22.262 1.133,-20.496 -0.563,-20.82C-2.439,-21.179 -3.485,-23.517 -2.595,-25.272L7.741,-43.101C8.313,-43.978 8.168,-43.761 8.836,-44.194L23.66,-52.752C26.489,-54.367 29.601,-55.497 32.892,-55.474Z" style="fill:rgb(155,216,186);fill-rule:nonzero;"/>
                    </g>
                    <g transform="matrix(0.972835,0,0,0.972835,-556.089,1100.64)">
                        <path d="M6276.62,2007.76C6279.55,2007.79 6282.49,2008.57 6285,2010.04C6290.26,2013.11 6293.41,2018.71 6293.53,2024.53C6293.77,2038.87 6293.58,2053.22 6293.54,2067.57C6293.42,2076.79 6288.31,2085.74 6280.3,2090.49C6267.91,2097.73 6255.55,2105.02 6243.03,2112.01C6232.89,2117.61 6217.82,2110.13 6217.69,2097.24C6217.61,2082.94 6217.6,2068.64 6217.69,2054.34C6217.8,2045.11 6222.85,2036.23 6230.92,2031.42C6243.32,2024.21 6255.69,2016.93 6268.19,2009.9C6270.8,2008.47 6273.46,2007.74 6276.62,2007.76ZM6276.39,2013.93C6274.55,2013.95 6272.72,2014.43 6271.11,2015.34C6258.74,2022.44 6246.38,2029.56 6234.05,2036.74C6227.95,2040.37 6223.94,2047.2 6223.85,2054.4C6223.76,2068.69 6223.7,2082.99 6223.86,2097.28C6224.01,2104.68 6232.8,2110.66 6240.11,2106.58C6252.48,2099.48 6264.86,2092.37 6277.17,2085.18C6283.31,2081.54 6287.28,2074.7 6287.37,2067.52C6287.41,2053.23 6287.6,2038.93 6287.37,2024.64C6287.25,2019.14 6282.51,2014.15 6276.83,2013.93C6276.68,2013.93 6276.54,2013.92 6276.39,2013.93Z" style="fill:rgb(54,176,116);fill-rule:nonzero;"/>
                    </g>
                    <g transform="matrix(0.972835,0,0,0.972835,-556.089,1100.64)">
                        <path d="M6289.7,2013.3C6290.76,2013.34 6291.83,2013.89 6291.03,2013.57L6290.76,2013.5C6290.76,2013.5 6293.15,2014.6 6293.48,2016.6C6293.48,2016.6 6293.52,2016.88 6293.54,2017.13C6293.54,2033.94 6293.59,2050.76 6293.54,2067.57C6293.43,2076.8 6288.32,2085.75 6280.3,2090.5C6267.17,2098.16 6253.97,2105.7 6240.8,2113.3C6237.18,2115.36 6232.59,2115.46 6228.86,2113.4C6228.67,2113.29 6228.61,2113.32 6228.04,2112.8C6228.04,2112.8 6229.95,2114.38 6227,2112.2C6221.52,2108.15 6218.72,2100.85 6220.18,2094.02C6222.93,2081.82 6225.67,2069.61 6228.62,2057.45C6230.32,2050.55 6234.85,2044.43 6240.98,2040.74C6256.44,2031.62 6272.07,2022.79 6287.61,2013.81C6288.26,2013.46 6288.69,2013.27 6289.7,2013.3ZM6244.37,2045.9C6239.52,2048.72 6235.91,2053.54 6234.58,2059.04C6231.75,2071.14 6228.94,2083.23 6226.2,2095.35C6225.17,2100.18 6227.42,2105.42 6231.77,2107.96C6231.77,2107.96 6231.98,2108.06 6232.4,2108.44C6232.4,2108.44 6231.38,2107.77 6232.11,2108.14C6233.85,2108.98 6235.95,2108.92 6237.64,2108C6250.87,2100.49 6264.03,2092.85 6277.18,2085.18C6283.35,2081.52 6287.35,2074.56 6287.37,2067.34L6287.37,2021.08C6273.03,2029.35 6258.7,2037.63 6244.37,2045.9Z" style="fill:none;"/>
                    </g>
                    <g transform="matrix(0.972835,0,0,0.972835,-556.089,1100.64)">
                        <path d="M6276.62,2007.76C6279.55,2007.79 6282.49,2008.57 6285,2010.04C6290.26,2013.11 6293.41,2018.71 6293.53,2024.53C6293.77,2038.87 6293.58,2053.22 6293.54,2067.57C6293.42,2076.79 6288.31,2085.74 6280.3,2090.49C6267.91,2097.73 6255.55,2105.02 6243.03,2112.01C6232.89,2117.61 6217.82,2110.13 6217.69,2097.24C6217.61,2082.94 6217.6,2068.64 6217.69,2054.34C6217.8,2045.11 6222.85,2036.23 6230.92,2031.42C6243.32,2024.21 6255.69,2016.93 6268.19,2009.9C6270.8,2008.47 6273.46,2007.74 6276.62,2007.76ZM6276.39,2013.93C6274.55,2013.95 6272.72,2014.43 6271.11,2015.34C6258.74,2022.44 6246.38,2029.56 6234.05,2036.74C6227.95,2040.37 6223.94,2047.2 6223.85,2054.4C6223.76,2068.69 6223.7,2082.99 6223.86,2097.28C6224.01,2104.68 6232.8,2110.66 6240.11,2106.58C6252.48,2099.48 6264.86,2092.37 6277.17,2085.18C6283.31,2081.54 6287.28,2074.7 6287.37,2067.52C6287.41,2053.23 6287.6,2038.93 6287.37,2024.64C6287.25,2019.14 6282.51,2014.15 6276.83,2013.93C6276.68,2013.93 6276.54,2013.92 6276.39,2013.93Z" style="fill:rgb(54,176,116);fill-rule:nonzero;"/>
                    </g>
                    <g transform="matrix(0.972835,0,0,0.972835,-518.199,1121.28)">
                        <path d="M6269.49,2012.71C6273.81,2010.22 6279.14,2010.22 6283.47,2012.71C6287.79,2015.21 6290.45,2019.82 6290.45,2024.82C6290.45,2035.48 6290.45,2054.42 6290.45,2067.35C6290.45,2075.84 6285.92,2083.69 6278.57,2087.94C6267.37,2094.4 6250.97,2103.87 6241.73,2109.2C6237.41,2111.7 6232.08,2111.7 6227.76,2109.2C6223.43,2106.71 6220.77,2102.09 6220.77,2097.1C6220.77,2086.44 6220.77,2067.5 6220.77,2054.57C6220.77,2046.08 6225.3,2038.23 6232.66,2033.98C6243.86,2027.51 6260.26,2018.05 6269.49,2012.71Z" style="fill:white;"/>
                    </g>
                    <g transform="matrix(0.972835,0,0,0.972835,-518.199,1121.28)">
                        <path d="M6289.72,2016.61C6289.87,2016.52 6290.06,2016.52 6290.21,2016.61C6290.36,2016.69 6290.45,2016.86 6290.45,2017.03C6290.45,2020.21 6290.45,2049.5 6290.45,2067.35C6290.45,2075.84 6285.92,2083.69 6278.57,2087.94C6266.28,2095.03 6247.74,2105.74 6239.26,2110.63C6236.47,2112.24 6233.02,2112.24 6230.23,2110.63C6224.62,2107.39 6221.8,2100.85 6223.3,2094.55C6225.77,2084.22 6229.47,2068.67 6231.88,2058.59C6233.4,2052.23 6237.46,2046.78 6243.12,2043.51C6258.02,2034.91 6286.78,2018.31 6289.72,2016.61Z" style="fill:rgb(155,216,186);"/>
                    </g>
                    <g transform="matrix(0.972835,0,0,0.972835,-518.199,1121.28)">
                        <path d="M6226.2,2111.87C6221.09,2108.88 6217.75,2103.18 6217.69,2097.24C6217.61,2082.94 6217.64,2068.64 6217.69,2054.35C6217.8,2045.14 6222.91,2036.17 6230.92,2031.42C6243.31,2024.19 6255.67,2016.9 6268.2,2009.9C6278.33,2004.31 6293.4,2011.59 6293.54,2024.68C6293.61,2038.98 6293.63,2053.28 6293.54,2067.58C6293.42,2076.8 6288.38,2085.68 6280.3,2090.49C6267.9,2097.71 6255.54,2104.99 6243.03,2112.01C6237.9,2114.85 6231.27,2114.82 6226.22,2111.88C6226.21,2111.87 6226.21,2111.87 6226.2,2111.87ZM6276.39,2013.93C6274.54,2013.95 6272.72,2014.44 6271.11,2015.34C6258.74,2022.44 6246.37,2029.54 6234.05,2036.74C6227.96,2040.35 6223.94,2047.22 6223.85,2054.39C6223.81,2068.69 6223.7,2082.99 6223.86,2097.28C6224.01,2104.62 6233.1,2110.52 6240.11,2106.58C6252.5,2099.51 6264.84,2092.35 6277.17,2085.18C6283.28,2081.54 6287.28,2074.72 6287.37,2067.52C6287.46,2053.22 6287.52,2038.93 6287.37,2024.63C6287.25,2018.95 6282.08,2013.91 6276.39,2013.93Z" style="fill:rgb(54,176,116);fill-rule:nonzero;"/>
                    </g>
                    <g transform="matrix(0.972835,0,0,0.972835,-518.199,1121.28)">
                        <path d="M6290.2,2013.46C6291.21,2013.57 6290.98,2013.51 6291.85,2014C6291.85,2014 6293.48,2015.31 6293.54,2016.98C6293.54,2033.84 6293.64,2050.71 6293.54,2067.57C6293.43,2076.82 6288.31,2085.74 6280.3,2090.49C6267.17,2098.16 6253.96,2105.7 6240.79,2113.31C6231.31,2118.67 6217.28,2107.46 6220.26,2094.01C6223.11,2081.84 6225.94,2069.66 6228.96,2057.53C6230.76,2050.56 6235.37,2044.45 6241.57,2040.84L6288.21,2013.91C6288.96,2013.51 6289.74,2013.45 6290.2,2013.46ZM6244.66,2046.18C6239.86,2048.97 6236.27,2053.7 6234.91,2059.17C6232.02,2071.23 6229.1,2083.3 6226.28,2095.38C6225.23,2100.1 6227.34,2105.24 6231.56,2107.84C6232.58,2108.45 6232.62,2108.39 6233.12,2108.53C6234.62,2108.95 6236.26,2108.76 6237.64,2108.01C6250.88,2100.51 6264.03,2092.85 6277.17,2085.18C6283.35,2081.51 6287.33,2074.62 6287.37,2067.34L6287.37,2021.52C6273.14,2029.74 6258.9,2037.96 6244.66,2046.18Z" style="fill:none;"/>
                    </g>
                    <g>
                        <g transform="matrix(1.44323,0,0,1.44323,-3510.77,195.027)">
                            <path d="M6226.73,1989.21C6231.69,1986.35 6237.8,1986.35 6242.76,1989.21C6253.34,1995.32 6271.86,2006.01 6282.44,2012.12C6287.4,2014.99 6290.45,2020.28 6290.45,2026C6290.45,2038.22 6290.45,2059.61 6290.45,2071.82C6290.45,2077.55 6287.4,2082.84 6282.44,2085.7C6280.3,2086.93 6277.84,2088.36 6275.19,2089.89C6250.16,2104.34 6219.33,2104.34 6194.31,2089.89C6184.86,2084.43 6179.04,2074.35 6179.04,2063.45L6179.04,2063.44C6179.04,2034.55 6194.45,2007.85 6219.48,1993.4C6222.13,1991.87 6224.6,1990.45 6226.73,1989.21Z" style="fill:white;"/>
                        </g>
                        <g transform="matrix(1.44323,0,0,1.44323,-3510.77,195.027)">
                            <path d="M6234.89,1984.99C6237.96,1985.02 6240.99,1985.84 6243.67,1987.34C6257.01,1994.97 6270.33,2002.66 6283.61,2010.4C6288.97,2013.58 6292.45,2019.51 6292.53,2025.85C6292.61,2041.22 6292.61,2056.6 6292.53,2071.98C6292.45,2078.2 6289.02,2084.22 6283.61,2087.43C6278.95,2090.14 6274.35,2092.94 6269.48,2095.18C6246.16,2105.94 6217.76,2105.05 6195.08,2092.71C6194.01,2092.12 6193.16,2091.63 6193.16,2091.63C6183.17,2085.83 6176.86,2074.61 6176.96,2062.75C6177.2,2034.1 6193.24,2006.37 6218.14,1991.78C6223.46,1988.69 6228.56,1985.06 6234.6,1984.99C6234.75,1984.99 6234.75,1984.99 6234.89,1984.99ZM6234.63,1989.14C6228.81,1989.22 6223.48,1993.31 6218.26,1996.56C6195.94,2010.45 6181.34,2036.46 6181.12,2062.78C6181.03,2072.97 6186.43,2082.91 6195.35,2088.09C6195.35,2088.09 6198.86,2090.11 6202.34,2091.68C6224.89,2101.85 6252.32,2100.51 6273.86,2088.25C6278.41,2085.64 6283.41,2083.55 6286.09,2079.47C6287.55,2077.24 6288.34,2074.6 6288.37,2071.94C6288.46,2056.59 6288.46,2041.24 6288.37,2025.89C6288.31,2021.08 6285.66,2016.45 6281.5,2013.98C6268.24,2006.25 6254.94,1998.57 6241.62,1990.95C6239.49,1989.76 6237.06,1989.13 6234.63,1989.14Z" style="fill:rgb(54,176,116);fill-rule:nonzero;"/>
                        </g>
                    </g>
                </g>
            </g>
        </g>
    </g>
</svg>
