<?xml version="1.0" encoding="UTF-8" standalone="no"?>
<!DOCTYPE svg PUBLIC "-//W3C//DTD SVG 1.1//EN" "http://www.w3.org/Graphics/SVG/1.1/DTD/svg11.dtd">
<svg width="100%" height="100%" viewBox="0 0 449 364" version="1.1" xmlns="http://www.w3.org/2000/svg" xmlns:xlink="http://www.w3.org/1999/xlink" xml:space="preserve" xmlns:serif="http://www.serif.com/" style="fill-rule:evenodd;clip-rule:evenodd;stroke-linejoin:round;stroke-miterlimit:1.41421;">
    <g transform="matrix(1,0,0,1,-1656.16,-459.491)">
        <g transform="matrix(1,0,0,1,770.16,287.284)">
            <g transform="matrix(1,0,0,1,-2753.74,-2684.84)">
                <g transform="matrix(1.2531,0,0,1.2531,-125.903,-723.876)">
                    <circle cx="3170.33" cy="3002.95" r="142.903" style="fill:white;"/>
                </g>
                <g>
                    <g transform="matrix(1.38712,0,0,1.38712,-1405.1,-1179.48)">
                        <path d="M3692.44,2981.18C3696.78,2978.67 3702.12,2978.67 3706.46,2981.18C3722.35,2990.35 3759.77,3011.95 3759.77,3011.95C3759.77,3011.95 3759.77,3055.16 3759.77,3073.51C3759.77,3078.52 3757.1,3083.15 3752.76,3085.65C3741.15,3092.35 3718.06,3105.68 3706.46,3112.39C3702.12,3114.89 3696.78,3114.89 3692.44,3112.39C3680.83,3105.68 3657.74,3092.35 3646.14,3085.65C3641.8,3083.15 3639.13,3078.52 3639.13,3073.51C3639.13,3060.11 3639.13,3033.45 3639.13,3020.05C3639.13,3015.04 3641.8,3010.41 3646.14,3007.91C3657.74,3001.21 3680.83,2987.88 3692.44,2981.18Z" style="fill:white;"/>
                    </g>
                    <g transform="matrix(1.38712,0,0,1.38712,-1405.1,-1179.48)">
                        <path d="M3692.44,2981.18C3696.78,2978.67 3702.12,2978.67 3706.46,2981.18C3722.35,2990.35 3759.77,3011.95 3759.77,3011.95C3759.77,3011.95 3759.77,3055.16 3759.77,3073.51C3759.77,3078.52 3757.1,3083.15 3752.76,3085.65C3741.15,3092.35 3718.06,3105.68 3706.46,3112.39C3702.12,3114.89 3696.78,3114.89 3692.44,3112.39C3680.83,3105.68 3657.74,3092.35 3646.14,3085.65C3641.8,3083.15 3639.13,3078.52 3639.13,3073.51C3639.13,3060.11 3639.13,3033.45 3639.13,3020.05C3639.13,3015.04 3641.8,3010.41 3646.14,3007.91C3657.74,3001.21 3680.83,2987.88 3692.44,2981.18Z" style="fill:white;"/>
                    </g>
                    <path d="M3673.63,2993.52C3687.44,2985.52 3701.27,2977.55 3715.12,2969.63C3718.64,2967.66 3722.67,2966.63 3726.67,2966.64C3730.63,2966.68 3734.57,2967.76 3738.01,2969.73L3810.96,3011.84L3908.19,3011.84L3909.26,3012.04L3924.13,3017.7L3980.81,3017.7L3993.82,3012.09L3995.01,3011.84L4023.84,3011.84C4025.2,3020.74 4025.91,3029.84 4025.91,3039.11C4025.91,3052.38 4024.46,3065.32 4021.72,3077.76L4017.51,3077.76L3987.3,3107.98C3985.37,3109.27 3982.83,3109.13 3982.18,3105.86L3982.15,3091.77L3982.15,3084.36L3962.53,3079.85L3962.59,3117.39L3962.36,3118.54L3961.71,3119.51L3960.74,3120.17L3959.59,3120.4L3958.44,3120.17L3957.47,3119.52L3927.61,3089.65L3927.61,3095.14L3927.38,3096.28C3926.94,3096.94 3926.56,3097.75 3924.61,3098.14L3904.32,3098.14L3904.35,3105.7L3904.12,3106.85L3903.47,3107.82L3902.5,3108.47L3901.35,3108.7L3900.2,3108.48L3899.22,3107.83L3869.17,3077.76L3863.56,3077.76L3833.34,3107.98C3831.41,3109.27 3828.88,3109.13 3828.22,3105.86L3828.2,3094.28L3813.15,3091.61C3813.15,3098.25 3813.46,3104.98 3810.51,3110.59C3808.53,3114.37 3805.48,3117.55 3801.79,3119.75C3780.52,3132.13 3759.22,3144.46 3737.85,3156.67C3730.94,3160.54 3722.18,3160.63 3715.12,3156.67C3712.97,3155.44 3710.81,3154.2 3708.66,3152.97C3683.12,3122.01 3667.77,3082.34 3667.77,3039.11C3667.77,3023.36 3669.81,3008.08 3673.63,2993.52Z" style="fill:rgb(155,216,186);"/>
                    <path d="M3810.15,3071.66L3810.15,3083.51C3810.15,3090.67 3806.33,3097.29 3800.12,3100.88C3784.03,3110.17 3752.61,3128.31 3736.51,3137.6C3730.31,3141.19 3722.66,3141.19 3716.45,3137.6C3700.36,3128.31 3668.94,3110.17 3652.84,3100.88C3646.64,3097.29 3642.82,3090.67 3642.82,3083.51C3642.82,3064.92 3642.82,3028.64 3642.82,3010.05C3642.82,3002.89 3646.64,2996.27 3652.84,2992.68C3668.94,2983.39 3700.36,2965.25 3716.45,2955.96C3722.66,2952.37 3730.31,2952.37 3736.51,2955.96L3810.15,2998.47L3908.19,2998.47L3923.58,3004.33L3981.43,3004.33L3995.01,2998.47L4060.5,2998.47L4085.04,3029.27L4055.27,3064.6L4055.3,3089.33L4024.37,3058.39L4016.27,3058.39L3985.18,3089.49L3985.15,3075.39L3985.15,3065.6L3959.53,3059.72L3959.59,3101.03L3924.61,3066.03L3924.61,3078.76L3901.31,3078.76L3901.35,3089.33L3870.41,3058.39L3862.32,3058.39L3831.22,3089.49L3831.2,3075.39L3810.15,3071.66Z" style="fill:white;"/>
                    <path d="M3698.45,3055.23L3698.45,3037.09C3698.45,3033.29 3700.47,3029.78 3703.76,3027.89C3708.6,3025.09 3715.71,3020.99 3720.55,3018.19C3723.84,3016.29 3727.89,3016.29 3731.17,3018.19C3736.01,3020.99 3743.12,3025.09 3747.97,3027.89C3751.25,3029.78 3753.28,3033.29 3753.28,3037.09L3753.28,3055.23C3753.28,3051.43 3751.25,3047.92 3747.97,3046.03C3743.12,3043.23 3736.01,3039.13 3731.17,3036.33C3727.89,3034.43 3723.84,3034.43 3720.55,3036.33C3715.71,3039.13 3708.6,3043.23 3703.76,3046.03C3700.47,3047.92 3698.45,3051.43 3698.45,3055.23Z" style="fill:rgb(155,216,186);"/>
                    <g transform="matrix(1.2531,0,0,1.2531,-125.903,-723.876)">
                        <path d="M3170.8,2857.65C3215.27,2857.85 3259.19,2879.64 3286.22,2915.34C3313.56,2951.44 3322.8,3000.61 3309.48,3044.85C3297.17,3085.75 3265.89,3120.44 3226.46,3136.99C3184.53,3154.58 3134.25,3151.05 3095.01,3127.19C3048.68,3099.03 3019.87,3044.41 3025.83,2987.64C3031.65,2932.23 3071.63,2881.84 3126.29,2864.45C3140.66,2859.88 3155.66,2857.63 3170.8,2857.65ZM3169.88,2862.44C3126.33,2862.64 3083.41,2884.16 3057.25,2919.58C3031.81,2954.01 3023.21,3000.34 3035.39,3042.23C3047.02,3082.18 3077.36,3116.34 3116.06,3132.57C3157.62,3150.01 3207.35,3145.96 3245.68,3121.53C3284.83,3096.59 3310.39,3051.7 3310.83,3004.31C3311.26,2958.43 3287.99,2913.23 3249.57,2886.92C3226.71,2871.27 3199.55,2862.67 3171.24,2862.44C3170.78,2862.44 3170.33,2862.44 3169.88,2862.44Z" style="fill:none;"/>
                    </g>
                    <g transform="matrix(1.38712,0,0,1.38712,-1405.1,-1179.48)">
                        <path d="M3699.58,2977.14C3702.36,2977.17 3705.12,2977.92 3707.53,2979.3L3760.85,3010.08C3761.87,3010.78 3761.87,3011.2 3761.93,3011.95C3761.93,3032.52 3762,3053.08 3761.93,3073.65C3761.86,3079.23 3758.78,3084.59 3753.96,3087.45C3738.48,3096.47 3722.97,3105.44 3707.42,3114.32C3702.57,3117.05 3696.37,3117.07 3691.48,3114.32C3675.93,3105.44 3660.42,3096.47 3644.94,3087.45C3640.16,3084.61 3637.04,3079.26 3636.97,3073.65C3636.9,3055.74 3636.9,3037.82 3636.97,3019.91C3637.04,3014.35 3640.11,3008.97 3644.94,3006.1C3660.42,2997.09 3675.94,2988.15 3691.48,2979.24C3693.95,2977.85 3696.76,2977.12 3699.58,2977.14ZM3699.35,2981.46C3697.35,2981.48 3695.36,2982.02 3693.61,2983C3678.09,2991.9 3662.59,3000.83 3647.13,3009.83C3643.64,3011.91 3641.35,3015.8 3641.29,3019.95C3641.23,3037.87 3641.07,3055.79 3641.29,3073.71C3641.38,3077.75 3643.65,3081.65 3647.13,3083.73C3662.59,3092.73 3678.08,3101.69 3693.61,3110.56C3697.16,3112.56 3701.72,3112.57 3705.29,3110.56C3720.82,3101.69 3736.3,3092.73 3751.76,3083.73C3755.28,3081.64 3757.55,3077.69 3757.6,3073.61L3757.61,3013.2C3740.17,3003.14 3722.76,2993.02 3705.29,2983C3703.48,2981.99 3701.43,2981.45 3699.35,2981.46Z" style="fill:none;"/>
                    </g>
                    <g transform="matrix(1.38712,0,0,1.38712,-1405.1,-1179.48)">
                        <path d="M3699.58,2977.14C3702.36,2977.17 3705.12,2977.92 3707.53,2979.3L3760.85,3010.08C3761.87,3010.78 3761.87,3011.2 3761.93,3011.95C3761.93,3032.52 3762,3053.08 3761.93,3073.65C3761.86,3079.23 3758.78,3084.59 3753.96,3087.45C3738.48,3096.47 3722.97,3105.44 3707.42,3114.32C3702.57,3117.05 3696.37,3117.07 3691.48,3114.32C3675.93,3105.44 3660.42,3096.47 3644.94,3087.45C3640.16,3084.61 3637.04,3079.26 3636.97,3073.65C3636.9,3055.74 3636.9,3037.82 3636.97,3019.91C3637.04,3014.35 3640.11,3008.97 3644.94,3006.1C3660.42,2997.09 3675.94,2988.15 3691.48,2979.24C3693.95,2977.85 3696.76,2977.12 3699.58,2977.14ZM3699.35,2981.46C3697.35,2981.48 3695.36,2982.02 3693.61,2983C3678.09,2991.9 3662.59,3000.83 3647.13,3009.83C3643.64,3011.91 3641.35,3015.8 3641.29,3019.95C3641.23,3037.87 3641.07,3055.79 3641.29,3073.71C3641.38,3077.75 3643.65,3081.65 3647.13,3083.73C3662.59,3092.73 3678.08,3101.69 3693.61,3110.56C3697.16,3112.56 3701.72,3112.57 3705.29,3110.56C3720.82,3101.69 3736.3,3092.73 3751.76,3083.73C3755.28,3081.64 3757.55,3077.69 3757.6,3073.61L3757.61,3013.2C3740.17,3003.14 3722.76,2993.02 3705.29,2983C3703.48,2981.99 3701.43,2981.45 3699.35,2981.46Z" style="fill:none;"/>
                    </g>
                    <path d="M3726.67,2950.27C3730.64,2950.32 3734.57,2951.39 3738.01,2953.36L3810.96,2995.47L3908.19,2995.47L3909.26,2995.67L3924.13,3001.33L3980.81,3001.33L3993.82,2995.72L3995.01,2995.47L4060.5,2995.47L4061.39,2995.61C4062.19,2995.99 4062.19,2996 4062.85,2996.6L4087.39,3027.4C4088.05,3028.6 4088.11,3029.88 4087.34,3031.2L4058.27,3065.7L4058.3,3089.33L4058.07,3090.48L4057.42,3091.45L4056.45,3092.11L4055.3,3092.33L4054.15,3092.11L4053.18,3091.45L4023.12,3061.39L4017.51,3061.39L3987.3,3091.61C3985.37,3092.9 3982.83,3092.76 3982.18,3089.49L3982.15,3075.4L3982.15,3067.99L3962.53,3063.48L3962.59,3101.02L3962.36,3102.17L3961.71,3103.14L3960.74,3103.8L3959.59,3104.02L3958.44,3103.8L3957.47,3103.14L3927.61,3073.28L3927.61,3078.76L3927.38,3079.91C3926.94,3080.57 3926.56,3081.38 3924.61,3081.76L3904.32,3081.76L3904.35,3089.32L3904.12,3090.47L3903.47,3091.45L3902.5,3092.1L3901.35,3092.33L3900.2,3092.11L3899.22,3091.45L3869.17,3061.39L3863.56,3061.39L3833.34,3091.61C3831.43,3092.89 3828.89,3092.82 3828.22,3089.49L3828.2,3077.91L3813.15,3075.24C3813.15,3081.88 3813.45,3088.61 3810.51,3094.22C3808.53,3098 3805.48,3101.18 3801.79,3103.38C3780.52,3115.76 3759.22,3128.09 3737.85,3140.3C3730.94,3144.17 3722.09,3144.21 3715.12,3140.3C3693.75,3128.09 3672.45,3115.76 3651.18,3103.38C3644.35,3099.31 3639.93,3091.68 3639.82,3083.7C3639.73,3059.09 3639.73,3034.47 3639.82,3009.86C3639.93,3001.9 3644.31,2994.27 3651.18,2990.18C3672.45,2977.8 3693.75,2965.47 3715.12,2953.26C3718.64,2951.29 3722.67,2950.26 3726.67,2950.27ZM3872.54,3056.27L3898.32,3082.07L3898.31,3078.77L3898.53,3077.62L3899.18,3076.65L3900.16,3075.99L3901.31,3075.76L3921.61,3075.76L3921.61,3066.03L3921.84,3064.89L3922.49,3063.91L3923.46,3063.26L3924.61,3063.03L3925.76,3063.26L3926.73,3063.91L3956.58,3093.77L3956.53,3059.72C3956.84,3058.01 3957.59,3056.67 3960.2,3056.79L3985.83,3062.67C3987.07,3063.19 3987.91,3064.14 3988.15,3065.6L3988.15,3075.39L3988.16,3082.26L4014.15,3056.27C4015.12,3055.63 4015.13,3055.62 4016.27,3055.39L4024.37,3055.39L4025.52,3055.62L4026.49,3056.27L4052.29,3082.08L4052.27,3064.61C4052.45,3063.58 4052.45,3063.57 4052.97,3062.67L4081.16,3029.21L4059.06,3001.47L3995.62,3001.47L3982.61,3007.08L3981.43,3007.33L3923.58,3007.33L3922.51,3007.13L3907.64,3001.47L3810.15,3001.47C3809.38,3001.37 3809.38,3001.37 3808.65,3001.07C3784.07,2986.88 3759.54,2972.57 3734.89,2958.48C3729.83,2955.64 3723.39,2955.57 3718.2,2958.41C3696.73,2970.47 3675.51,2982.97 3654.22,2995.35C3649.15,2998.37 3645.9,3003.99 3645.82,3009.91C3645.73,3034.49 3645.73,3059.07 3645.82,3083.65C3645.9,3089.55 3649.14,3095.18 3654.22,3098.21C3675.47,3110.57 3696.74,3122.88 3718.08,3135.08C3723.14,3137.92 3729.58,3137.99 3734.77,3135.14C3756.24,3123.09 3777.46,3110.59 3798.75,3098.21C3803.84,3095.17 3807.13,3089.44 3807.15,3083.5L3807.15,3071.66L3807.44,3070.39L3808.23,3069.36L3809.38,3068.76L3810.68,3068.71L3831.72,3072.44C3831.72,3072.44 3833.59,3071.92 3834.2,3075.39L3834.21,3082.26L3860.2,3056.27L3861.17,3055.62L3862.32,3055.39L3870.41,3055.39L3871.56,3055.62C3871.89,3055.84 3872.21,3056.06 3872.54,3056.27Z" style="fill:none;"/>
                    <path d="M3726.67,2950.27C3730.64,2950.32 3734.57,2951.39 3738.01,2953.36L3810.96,2995.47L3908.19,2995.47L3909.26,2995.67L3924.13,3001.33L3980.81,3001.33L3993.82,2995.72L3995.01,2995.47L4060.5,2995.47L4061.39,2995.61C4062.19,2995.99 4062.19,2996 4062.85,2996.6L4087.39,3027.4C4088.05,3028.6 4088.11,3029.88 4087.34,3031.2L4058.27,3065.7L4058.3,3089.33L4058.07,3090.48L4057.42,3091.45L4056.45,3092.11L4055.3,3092.33L4054.15,3092.11L4053.18,3091.45L4023.12,3061.39L4017.51,3061.39L3987.3,3091.61C3985.37,3092.9 3982.83,3092.76 3982.18,3089.49L3982.15,3075.4L3982.15,3067.99L3962.53,3063.48L3962.59,3101.02L3962.36,3102.17L3961.71,3103.14L3960.74,3103.8L3959.59,3104.02L3958.44,3103.8L3957.47,3103.14L3927.61,3073.28L3927.61,3078.76L3927.38,3079.91C3926.94,3080.57 3926.56,3081.38 3924.61,3081.76L3904.32,3081.76L3904.35,3089.32L3904.12,3090.47L3903.47,3091.45L3902.5,3092.1L3901.35,3092.33L3900.2,3092.11L3899.22,3091.45L3869.17,3061.39L3863.56,3061.39L3833.34,3091.61C3831.43,3092.89 3828.89,3092.82 3828.22,3089.49L3828.2,3077.91L3813.15,3075.24C3813.15,3081.88 3813.45,3088.61 3810.51,3094.22C3808.53,3098 3805.48,3101.18 3801.79,3103.38C3780.52,3115.76 3759.22,3128.09 3737.85,3140.3C3730.94,3144.17 3722.09,3144.21 3715.12,3140.3C3693.75,3128.09 3672.45,3115.76 3651.18,3103.38C3644.35,3099.31 3639.93,3091.68 3639.82,3083.7C3639.73,3059.09 3639.73,3034.47 3639.82,3009.86C3639.93,3001.9 3644.31,2994.27 3651.18,2990.18C3672.45,2977.8 3693.75,2965.47 3715.12,2953.26C3718.64,2951.29 3722.67,2950.26 3726.67,2950.27ZM3872.54,3056.27L3898.32,3082.07L3898.31,3078.77L3898.53,3077.62L3899.18,3076.65L3900.16,3075.99L3901.31,3075.76L3921.61,3075.76L3921.61,3066.03L3921.84,3064.89L3922.49,3063.91L3923.46,3063.26L3924.61,3063.03L3925.76,3063.26L3926.73,3063.91L3956.58,3093.77L3956.53,3059.72C3956.84,3058.01 3957.59,3056.67 3960.2,3056.79L3985.83,3062.67C3987.07,3063.19 3987.91,3064.14 3988.15,3065.6L3988.15,3075.39L3988.16,3082.26L4014.15,3056.27C4015.12,3055.63 4015.13,3055.62 4016.27,3055.39L4024.37,3055.39L4025.52,3055.62L4026.49,3056.27L4052.29,3082.08L4052.27,3064.61C4052.45,3063.58 4052.45,3063.57 4052.97,3062.67L4081.16,3029.21L4059.06,3001.47L3995.62,3001.47L3982.61,3007.08L3981.43,3007.33L3923.58,3007.33L3922.51,3007.13L3907.64,3001.47L3810.15,3001.47C3809.38,3001.37 3809.38,3001.37 3808.65,3001.07C3784.07,2986.88 3759.54,2972.57 3734.89,2958.48C3729.83,2955.64 3723.39,2955.57 3718.2,2958.41C3696.73,2970.47 3675.51,2982.97 3654.22,2995.35C3649.15,2998.37 3645.9,3003.99 3645.82,3009.91C3645.73,3034.49 3645.73,3059.07 3645.82,3083.65C3645.9,3089.55 3649.14,3095.18 3654.22,3098.21C3675.47,3110.57 3696.74,3122.88 3718.08,3135.08C3723.14,3137.92 3729.58,3137.99 3734.77,3135.14C3756.24,3123.09 3777.46,3110.59 3798.75,3098.21C3803.84,3095.17 3807.13,3089.44 3807.15,3083.5L3807.15,3071.66L3807.44,3070.39L3808.23,3069.36L3809.38,3068.76L3810.68,3068.71L3831.72,3072.44C3831.72,3072.44 3833.59,3071.92 3834.2,3075.39L3834.21,3082.26L3860.2,3056.27L3861.17,3055.62L3862.32,3055.39L3870.41,3055.39L3871.56,3055.62C3871.89,3055.84 3872.21,3056.06 3872.54,3056.27Z" style="fill:rgb(54,176,116);fill-rule:nonzero;"/>
                    <g transform="matrix(1,0,0,1,-64.572,110.818)">
                        <path d="M3737.23,2965.61C3738.05,2965.74 3737.84,2965.7 3738.4,2966L3791.93,2996.9C3794.56,2998.57 3792.76,3004.1 3788.93,3002.1L3735.4,2971.19C3734.72,2970.76 3734.58,2970.55 3734.34,2970.16C3733.23,2968.35 3734.33,2965.63 3736.98,2965.6C3737.06,2965.6 3737.15,2965.61 3737.23,2965.61Z" style="fill:rgb(155,216,186);fill-rule:nonzero;"/>
                    </g>
                    <g transform="matrix(1,0,0,-1,-11.0362,6078.91)">
                        <path d="M3790.64,3002.49C3793.24,3002.24 3793.2,3001.41 3793.41,2999.92C3793.57,2998.74 3792.98,2997.55 3791.93,2996.9L3765.17,2981.45C3762.63,2980.09 3762.1,2981.07 3761.21,2982.32C3760.26,2983.68 3760.69,2985.73 3762.17,2986.65L3788.93,3002.1C3789.86,3002.6 3790.04,3002.52 3790.64,3002.49Z" style="fill:rgb(155,216,186);fill-rule:nonzero;"/>
                    </g>
                    <g transform="matrix(1,0,0,-1,-65.2195,5986.78)">
                        <path d="M3763.84,2987.04C3766.46,2986.81 3767.81,2983.08 3765.17,2981.45L3739.05,2966.37C3737.03,2965.28 3736.59,2965.94 3735.76,2966.56C3734.18,2967.73 3734.22,2970.44 3736.05,2971.57L3762.17,2986.65C3763.07,2987.13 3763.25,2987.06 3763.84,2987.04Z" style="fill:rgb(155,216,186);fill-rule:nonzero;"/>
                    </g>
                    <g transform="matrix(1,0,0,1,0,7.23325)">
                        <path d="M3977.69,3012.72L3994.22,3029.25L4044.15,3029.25C4044.93,3029.41 4045.81,3029.45 4046.92,3031.1L4047.15,3032.25L4046.92,3033.4L4046.27,3034.37C4045.3,3035.02 4045.29,3035.03 4044.15,3035.25L3992.98,3035.25L3991.83,3035.02L3990.86,3034.37L3974.33,3017.85L3954.87,3017.85L3938.34,3034.37L3937.37,3035.02L3936.22,3035.25L3903.58,3035.25C3902.44,3035.03 3902.43,3035.02 3901.46,3034.37L3884.93,3017.85L3786.13,3017.85L3784.63,3017.44L3724.36,2982.65L3723.48,2981.88L3722.97,2980.83C3722.89,2979.66 3722.89,2979.65 3723.26,2978.55L3724.04,2977.67C3724.75,2977.32 3725.48,2976.81 3727.36,2977.45L3786.93,3011.85L3886.18,3011.85L3887.33,3012.07L3888.3,3012.72L3904.83,3029.25L3934.98,3029.25L3951.51,3012.72L3952.48,3012.07L3953.63,3011.85L3975.57,3011.85L3976.72,3012.07C3977.04,3012.29 3977.37,3012.51 3977.69,3012.72Z" style="fill:rgb(155,216,186);fill-rule:nonzero;"/>
                    </g>
                    <g transform="matrix(1,0,0,1,0,7.23325)">
                        <path d="M4032.96,3011.85C4035.69,3012.1 4035.61,3012.9 4035.76,3014.57C4035.92,3016.22 4034.53,3017.79 4032.78,3017.84L4004.01,3017.84C4000.91,3017.75 3999.8,3011.97 4004.01,3011.84L4032.78,3011.84C4032.84,3011.85 4032.9,3011.85 4032.96,3011.85Z" style="fill:rgb(155,216,186);fill-rule:nonzero;"/>
                    </g>
                    <g transform="matrix(1,0,0,1,0,7.23325)">
                        <path d="M3931.16,3011.85C3933.34,3012.03 3933.34,3012.73 3933.74,3013.64C3934.53,3015.44 3933.13,3017.79 3930.99,3017.85L3908.19,3017.85C3905.16,3017.76 3903.99,3011.96 3908.19,3011.85C3915.85,3011.85 3923.51,3011.64 3931.16,3011.85Z" style="fill:rgb(155,216,186);fill-rule:nonzero;"/>
                    </g>
                    <g transform="matrix(1,0,0,1,0,7.23325)">
                        <path d="M3859.89,3029.26C3862.91,3029.53 3863.84,3035.13 3859.71,3035.25L3831.79,3035.25C3828.45,3035.15 3828.51,3033.52 3828.84,3031.71C3829.09,3030.34 3830.34,3029.3 3831.79,3029.25L3859.71,3029.25C3859.77,3029.25 3859.83,3029.26 3859.89,3029.26Z" style="fill:rgb(155,216,186);fill-rule:nonzero;"/>
                    </g>
                    <g transform="matrix(1,0,0,1,25.8354,7.23325)">
                        <path d="M3859.82,3029.25C3862.82,3029.42 3863.78,3035.03 3859.82,3035.25C3856.25,3035.32 3852.59,3035.73 3849.13,3035.22C3846.44,3034.82 3845.39,3029.48 3849.46,3029.25C3852.91,3029.19 3856.37,3029.19 3859.82,3029.25Z" style="fill:rgb(155,216,186);fill-rule:nonzero;"/>
                    </g>
                    <g transform="matrix(1.2531,0,0,1.2531,-125.903,-723.876)">
                        <path d="M3170.69,2857.65C3199.79,2857.76 3228.74,2866.74 3252.68,2883.25C3275.36,2898.89 3293.49,2921.05 3304.23,2946.48C3304.68,2947.54 3305.33,2948.55 3304.99,2950.18L3304.47,2950.95L3303.69,2951.46L3302.77,2951.64L3301.86,2951.45L3301.08,2950.93C3300.44,2949.96 3300.03,2948.84 3299.57,2947.75C3280.89,2904.23 3239.51,2871.34 3191.65,2864.05C3145.78,2857.05 3097.01,2874.26 3065.67,2909.23C3053.91,2922.36 3044.64,2937.68 3038.49,2954.28L3038,2955.08C3037.25,2955.62 3037.24,2955.63 3036.34,2955.85L3035.41,2955.7L3034.62,2955.21L3034.07,2954.45L3033.85,2953.54L3034,2952.62C3049.17,2911.69 3083.49,2878.43 3125.21,2864.8C3139.64,2860.09 3154.8,2857.7 3169.97,2857.65C3170.21,2857.65 3170.45,2857.65 3170.69,2857.65Z" style="fill:rgb(54,176,116);fill-rule:nonzero;"/>
                    </g>
                    <g transform="matrix(1.2531,0,0,1.2531,-125.903,-723.876)">
                        <path d="M3313.49,3016.98L3314.21,3017.58L3314.63,3018.41C3314.66,3018.72 3314.7,3019.03 3314.71,3019.34C3314.71,3019.38 3314.39,3022.1 3314.05,3024.41C3306.83,3073.13 3273.03,3117.2 3227.05,3136.74C3187.71,3153.46 3140.91,3151.66 3102.79,3131.6C3086.48,3123.02 3071.85,3111.3 3059.88,3097.3C3059.24,3096.57 3058.63,3095.84 3058.17,3094.99L3058.07,3094.07L3058.33,3093.17L3058.92,3092.44L3059.74,3091.99L3060.67,3091.89L3061.57,3092.16L3062.29,3092.74C3094.49,3131.28 3147.98,3151.48 3199.93,3140.33C3242.79,3131.12 3280.53,3100.63 3298.6,3060.36C3304.5,3047.2 3308.33,3033.12 3309.95,3018.8L3310.24,3017.91L3310.84,3017.2L3311.67,3016.77L3312.6,3016.7C3312.9,3016.79 3313.2,3016.89 3313.49,3016.98Z" style="fill:rgb(54,176,116);fill-rule:nonzero;"/>
                    </g>
                    <g transform="matrix(0.803956,0,0,0.803956,736.601,598.131)">
                        <path d="M3718.46,3004.69C3721.25,3004.76 3723.98,3005.49 3726.42,3006.82C3733.82,3011.02 3741.49,3014.91 3748.51,3019.61C3753.03,3022.64 3755.88,3027.94 3756.02,3033.41C3756.09,3042.01 3756.68,3050.63 3755.96,3059.22C3755.52,3064.55 3752.39,3069.53 3747.8,3072.34C3740.38,3076.71 3733.2,3081.53 3725.41,3085.2C3720.57,3087.48 3714.7,3087.26 3709.96,3084.68C3702.47,3080.45 3694.72,3076.64 3687.64,3071.73C3683.24,3068.68 3680.5,3063.5 3680.36,3058.09C3680.29,3049.58 3679.84,3040.98 3680.39,3032.57C3680.75,3027.16 3683.88,3022.03 3688.59,3019.16C3695.6,3015.03 3702.68,3011.02 3709.73,3006.95C3712.23,3005.53 3715.05,3004.76 3717.92,3004.69C3718.19,3004.69 3718.19,3004.69 3718.46,3004.69ZM3718.03,3012.15C3716.48,3012.19 3714.95,3012.6 3713.59,3013.34C3706.5,3017.36 3699.44,3021.42 3692.43,3025.56C3689.69,3027.23 3687.91,3030.28 3687.82,3033.53C3687.75,3041.68 3687.75,3049.82 3687.82,3057.97C3687.9,3061.2 3689.68,3064.26 3692.43,3065.94C3699.44,3070.08 3706.5,3074.15 3713.59,3078.16C3716.41,3079.7 3719.95,3079.71 3722.79,3078.16C3729.88,3074.15 3736.94,3070.08 3743.95,3065.94C3746.72,3064.25 3748.48,3061.19 3748.56,3057.97C3748.63,3049.82 3748.63,3041.68 3748.56,3033.53C3748.48,3030.3 3746.7,3027.24 3743.95,3025.56C3736.94,3021.42 3729.88,3017.36 3722.79,3013.34C3721.31,3012.53 3720.03,3012.14 3718.03,3012.15Z" style="fill:rgb(54,176,116);fill-rule:nonzero;"/>
                    </g>
                </g>
            </g>
        </g>
    </g>
</svg>
