<?xml version="1.0" encoding="UTF-8" standalone="no"?>
<!DOCTYPE svg PUBLIC "-//W3C//DTD SVG 1.1//EN" "http://www.w3.org/Graphics/SVG/1.1/DTD/svg11.dtd">
<svg width="100%" height="100%" viewBox="0 0 449 365" version="1.1" xmlns="http://www.w3.org/2000/svg" xmlns:xlink="http://www.w3.org/1999/xlink" xml:space="preserve" xmlns:serif="http://www.serif.com/" style="fill-rule:evenodd;clip-rule:evenodd;stroke-linejoin:round;stroke-miterlimit:1.41421;">
    <g transform="matrix(1,0,0,1,-2163.59,-434.931)">
        <g transform="matrix(1.19885,0,0,1,923.303,287.284)">
            <g transform="matrix(0.834136,0,0,1,-2526.07,-2701.15)">
                <g transform="matrix(1.2531,0,0,1.2531,503.052,-731.627)">
                    <circle cx="3170.33" cy="3002.95" r="142.903" style="fill:white;"/>
                </g>
                <g>
                    <g transform="matrix(1.38712,0,0,1.38712,-776.151,-1187.23)">
                        <path d="M3692.44,2981.18C3696.78,2978.67 3702.12,2978.67 3706.46,2981.18C3722.35,2990.35 3759.77,3011.95 3759.77,3011.95C3759.77,3011.95 3759.77,3055.16 3759.77,3073.51C3759.77,3078.52 3757.1,3083.15 3752.76,3085.65C3741.15,3092.35 3718.06,3105.68 3706.46,3112.39C3702.12,3114.89 3696.78,3114.89 3692.44,3112.39C3680.83,3105.68 3657.74,3092.35 3646.14,3085.65C3641.8,3083.15 3639.13,3078.52 3639.13,3073.51C3639.13,3060.11 3639.13,3033.45 3639.13,3020.05C3639.13,3015.04 3641.8,3010.41 3646.14,3007.91C3657.74,3001.21 3680.83,2987.88 3692.44,2981.18Z" style="fill:white;"/>
                    </g>
                    <g transform="matrix(1.38712,0,0,1.38712,-776.151,-1187.23)">
                        <path d="M3692.44,2981.18C3696.78,2978.67 3702.12,2978.67 3706.46,2981.18C3722.35,2990.35 3759.77,3011.95 3759.77,3011.95C3759.77,3011.95 3759.77,3055.16 3759.77,3073.51C3759.77,3078.52 3757.1,3083.15 3752.76,3085.65C3741.15,3092.35 3718.06,3105.68 3706.46,3112.39C3702.12,3114.89 3696.78,3114.89 3692.44,3112.39C3680.83,3105.68 3657.74,3092.35 3646.14,3085.65C3641.8,3083.15 3639.13,3078.52 3639.13,3073.51C3639.13,3060.11 3639.13,3033.45 3639.13,3020.05C3639.13,3015.04 3641.8,3010.41 3646.14,3007.91C3657.74,3001.21 3680.83,2987.88 3692.44,2981.18Z" style="fill:white;"/>
                    </g>
                    <g transform="matrix(1,0,0,1,628.954,-7.75186)">
                        <path d="M3673.63,2993.52C3687.44,2985.52 3701.27,2977.55 3715.12,2969.63C3718.64,2967.66 3722.67,2966.63 3726.67,2966.64C3730.63,2966.68 3734.57,2967.76 3738.01,2969.73L3810.96,3011.84L3908.19,3011.84L3909.26,3012.04L3924.13,3017.7L3980.81,3017.7L3993.82,3012.09L3995.01,3011.84L4023.84,3011.84C4025.2,3020.74 4025.91,3029.84 4025.91,3039.11C4025.91,3052.38 4024.46,3065.32 4021.72,3077.76L4017.51,3077.76L3987.3,3107.98C3985.37,3109.27 3982.83,3109.13 3982.18,3105.86L3982.15,3091.77L3982.15,3084.36L3962.53,3079.85L3962.59,3117.39L3962.36,3118.54L3961.71,3119.51L3960.74,3120.17L3959.59,3120.4L3958.44,3120.17L3957.47,3119.52L3927.61,3089.65L3927.61,3095.14L3927.38,3096.28C3926.94,3096.94 3926.56,3097.75 3924.61,3098.14L3904.32,3098.14L3904.35,3105.7L3904.12,3106.85L3903.47,3107.82L3902.5,3108.47L3901.35,3108.7L3900.2,3108.48L3899.22,3107.83L3869.17,3077.76L3863.56,3077.76L3833.34,3107.98C3831.41,3109.27 3828.88,3109.13 3828.22,3105.86L3828.2,3094.28L3813.15,3091.61C3813.15,3098.25 3813.46,3104.98 3810.51,3110.59C3808.53,3114.37 3805.48,3117.55 3801.79,3119.75C3780.52,3132.13 3759.22,3144.46 3737.85,3156.67C3730.94,3160.54 3722.18,3160.63 3715.12,3156.67C3712.97,3155.44 3710.81,3154.2 3708.66,3152.97C3683.12,3122.01 3667.77,3082.34 3667.77,3039.11C3667.77,3023.36 3669.81,3008.08 3673.63,2993.52Z" style="fill:rgb(155,216,186);"/>
                    </g>
                    <g transform="matrix(1,0,0,1,628.954,-7.75186)">
                        <path d="M3810.15,3071.66L3810.15,3083.51C3810.15,3090.67 3806.33,3097.29 3800.12,3100.88C3784.03,3110.17 3752.61,3128.31 3736.51,3137.6C3730.31,3141.19 3722.66,3141.19 3716.45,3137.6C3700.36,3128.31 3668.94,3110.17 3652.84,3100.88C3646.64,3097.29 3642.82,3090.67 3642.82,3083.51C3642.82,3064.92 3642.82,3028.64 3642.82,3010.05C3642.82,3002.89 3646.64,2996.27 3652.84,2992.68C3668.94,2983.39 3700.36,2965.25 3716.45,2955.96C3722.66,2952.37 3730.31,2952.37 3736.51,2955.96L3810.15,2998.47L3908.19,2998.47L3923.58,3004.33L3981.43,3004.33L3995.01,2998.47L4060.5,2998.47L4085.04,3029.27L4055.27,3064.6L4055.3,3089.33L4024.37,3058.39L4016.27,3058.39L3985.18,3089.49L3985.15,3075.39L3985.15,3065.6L3959.53,3059.72L3959.59,3101.03L3924.61,3066.03L3924.61,3078.76L3901.31,3078.76L3901.35,3089.33L3870.41,3058.39L3862.32,3058.39L3831.22,3089.49L3831.2,3075.39L3810.15,3071.66Z" style="fill:white;"/>
                    </g>
                    <g transform="matrix(0.866025,0.5,-0.5,0.866025,1881.22,-1180.65)">
                        <path d="M4401.86,2193.63L4401.86,2507.24L4420.4,2367.54L4407.93,2360.95L4408.52,2278.19L4416.22,2272.33" style="fill:rgb(155,216,186);"/>
                    </g>
                    <g transform="matrix(1.2531,0,0,1.2531,503.052,-731.627)">
                        <path d="M3170.8,2857.65C3215.8,2857.88 3259.66,2879.82 3286.75,2916.03C3313.39,2951.64 3322.48,2999.68 3309.99,3043.13C3297.98,3084.88 3266.27,3120.43 3226.05,3137.16C3190.83,3151.81 3149.84,3151.81 3114.61,3137.16C3068.62,3118.03 3033.74,3074.1 3026.51,3023.7C3020.08,2978.88 3035.83,2931.44 3068.54,2899.3C3095.07,2873.24 3131.7,2857.94 3169.39,2857.65C3169.86,2857.65 3170.33,2857.65 3170.8,2857.65ZM3169.88,2862.44C3126.07,2862.66 3083.32,2884.28 3057.25,2919.58C3027.22,2960.24 3021.17,3017.14 3043.68,3063.84C3062.58,3103.03 3100.67,3132.68 3143.74,3140.94C3187.56,3149.34 3234.98,3135.6 3267.56,3104.35C3294.62,3078.38 3310.71,3041.37 3310.84,3003.4C3310.99,2957.57 3287.26,2912.4 3248.87,2886.45C3225.98,2870.98 3198.26,2862.58 3170.78,2862.44C3170.48,2862.44 3170.18,2862.44 3169.88,2862.44Z" style="fill:none;"/>
                    </g>
                    <g transform="matrix(1.38712,0,0,1.38712,-776.151,-1187.23)">
                        <path d="M3699.58,2977.14C3702.37,2977.17 3705.12,2977.92 3707.53,2979.3L3760.85,3010.08C3761.46,3010.5 3761.84,3010.77 3761.93,3011.95C3761.93,3032.52 3762,3053.08 3761.93,3073.65C3761.86,3079.22 3758.84,3084.56 3753.96,3087.45C3738.49,3096.48 3722.97,3105.44 3707.42,3114.33C3702.56,3117.05 3696.43,3117.1 3691.48,3114.33C3675.93,3105.42 3660.41,3096.48 3644.94,3087.45C3640.14,3084.6 3637.04,3079.25 3636.97,3073.65C3636.87,3055.74 3636.87,3037.82 3636.97,3019.91C3637.04,3014.34 3640.12,3008.97 3644.94,3006.11C3660.41,2997.08 3675.93,2988.14 3691.48,2979.24C3693.94,2977.85 3696.76,2977.12 3699.58,2977.14ZM3699.35,2981.46C3697.35,2981.49 3695.36,2982.02 3693.61,2983C3678.09,2991.89 3662.59,3000.82 3647.13,3009.83C3643.61,3011.92 3641.35,3015.83 3641.29,3019.95C3641.2,3037.84 3641.2,3055.72 3641.29,3073.61C3641.35,3077.69 3643.6,3081.63 3647.13,3083.73C3662.59,3092.74 3678.09,3101.67 3693.61,3110.56C3697.17,3112.56 3701.66,3112.59 3705.29,3110.56C3720.82,3101.69 3736.31,3092.74 3751.76,3083.73C3755.27,3081.64 3757.55,3077.71 3757.6,3073.61L3757.61,3013.2C3740.17,3003.14 3722.77,2992.99 3705.29,2983C3703.48,2981.99 3701.41,2981.45 3699.35,2981.46Z" style="fill:none;"/>
                    </g>
                    <g transform="matrix(1.38712,0,0,1.38712,-776.151,-1187.23)">
                        <path d="M3699.58,2977.14C3702.37,2977.17 3705.12,2977.92 3707.53,2979.3L3760.85,3010.08C3761.46,3010.5 3761.84,3010.77 3761.93,3011.95C3761.93,3032.52 3762,3053.08 3761.93,3073.65C3761.86,3079.22 3758.84,3084.56 3753.96,3087.45C3738.49,3096.48 3722.97,3105.44 3707.42,3114.33C3702.56,3117.05 3696.43,3117.1 3691.48,3114.33C3675.93,3105.42 3660.41,3096.48 3644.94,3087.45C3640.14,3084.6 3637.04,3079.25 3636.97,3073.65C3636.87,3055.74 3636.87,3037.82 3636.97,3019.91C3637.04,3014.34 3640.12,3008.97 3644.94,3006.11C3660.41,2997.08 3675.93,2988.14 3691.48,2979.24C3693.94,2977.85 3696.76,2977.12 3699.58,2977.14ZM3699.35,2981.46C3697.35,2981.49 3695.36,2982.02 3693.61,2983C3678.09,2991.89 3662.59,3000.82 3647.13,3009.83C3643.61,3011.92 3641.35,3015.83 3641.29,3019.95C3641.2,3037.84 3641.2,3055.72 3641.29,3073.61C3641.35,3077.69 3643.6,3081.63 3647.13,3083.73C3662.59,3092.74 3678.09,3101.67 3693.61,3110.56C3697.17,3112.56 3701.66,3112.59 3705.29,3110.56C3720.82,3101.69 3736.31,3092.74 3751.76,3083.73C3755.27,3081.64 3757.55,3077.71 3757.6,3073.61L3757.61,3013.2C3740.17,3003.14 3722.77,2992.99 3705.29,2983C3703.48,2981.99 3701.41,2981.45 3699.35,2981.46Z" style="fill:none;"/>
                    </g>
                    <g transform="matrix(1,0,0,1,628.954,-7.75186)">
                        <path d="M3726.67,2950.27C3730.64,2950.32 3734.57,2951.38 3738.01,2953.36L3810.96,2995.47L3908.19,2995.47L3909.26,2995.67L3924.13,3001.33L3980.81,3001.33L3993.82,2995.72L3995.01,2995.47L4060.5,2995.47L4061.39,2995.61C4062.19,2995.99 4062.19,2996 4062.85,2996.6L4087.39,3027.4C4088.05,3028.6 4088.11,3029.88 4087.34,3031.2L4058.27,3065.7L4058.3,3089.33L4058.07,3090.48L4057.42,3091.45L4056.45,3092.11L4055.3,3092.33L4054.15,3092.11L4053.18,3091.45L4023.12,3061.39L4017.51,3061.39L3987.3,3091.61C3985.37,3092.9 3982.83,3092.76 3982.18,3089.49L3982.15,3075.4L3982.15,3067.99L3962.53,3063.48L3962.59,3101.02L3962.36,3102.17L3961.71,3103.14L3960.74,3103.8L3959.59,3104.03L3958.44,3103.8L3957.47,3103.15L3927.61,3073.28L3927.61,3078.76L3927.38,3079.91C3926.27,3081.57 3925.39,3081.61 3924.61,3081.76L3904.32,3081.76L3904.35,3089.32L3904.12,3090.47L3903.47,3091.45L3902.5,3092.1L3901.35,3092.33L3900.2,3092.11L3899.22,3091.45L3869.17,3061.39L3863.56,3061.39L3833.34,3091.61C3831.43,3092.89 3828.89,3092.82 3828.22,3089.49L3828.2,3077.91L3813.15,3075.24C3813.15,3081.79 3813.55,3088.44 3810.51,3094.22C3808.53,3098 3805.48,3101.19 3801.79,3103.38C3780.54,3115.79 3759.22,3128.09 3737.85,3140.3C3730.93,3144.18 3722.09,3144.21 3715.12,3140.3C3693.75,3128.09 3672.43,3115.79 3651.18,3103.38C3644.35,3099.32 3639.91,3091.7 3639.82,3083.7C3639.73,3059.09 3639.73,3034.47 3639.82,3009.86C3639.91,3001.96 3644.3,2994.26 3651.18,2990.18C3672.43,2977.77 3693.77,2965.51 3715.12,2953.26C3718.64,2951.29 3722.66,2950.26 3726.67,2950.27ZM3872.54,3056.27L3898.32,3082.07L3898.31,3078.77L3898.53,3077.62L3899.18,3076.65L3900.16,3075.99L3901.31,3075.76L3921.61,3075.76L3921.61,3066.03L3921.84,3064.89L3922.49,3063.91L3923.46,3063.26L3924.61,3063.03L3925.76,3063.26L3926.73,3063.91L3956.58,3093.77L3956.53,3059.72C3956.83,3058.02 3957.55,3056.67 3960.2,3056.79L3985.83,3062.67C3987.07,3063.19 3987.91,3064.14 3988.15,3065.6L3988.15,3075.39L3988.16,3082.26L4014.15,3056.27C4015.12,3055.63 4015.13,3055.62 4016.27,3055.39L4024.37,3055.39L4025.52,3055.62L4026.49,3056.27L4052.29,3082.08L4052.27,3064.61C4052.45,3063.58 4052.45,3063.57 4052.97,3062.67L4081.16,3029.21L4059.06,3001.47L3995.62,3001.47L3982.61,3007.08L3981.43,3007.33L3923.58,3007.33L3922.51,3007.13L3907.64,3001.47L3810.15,3001.47C3809.38,3001.37 3809.38,3001.37 3808.65,3001.07C3784.07,2986.88 3759.52,2972.61 3734.89,2958.48C3729.81,2955.64 3723.39,2955.57 3718.2,2958.41C3696.73,2970.47 3675.49,2982.94 3654.22,2995.35C3649.19,2998.34 3645.89,3003.94 3645.82,3009.91C3645.73,3034.49 3645.73,3059.07 3645.82,3083.65C3645.89,3089.51 3649.13,3095.19 3654.22,3098.21C3675.45,3110.6 3696.74,3122.88 3718.08,3135.08C3723.18,3137.94 3729.66,3138.01 3734.89,3135.08C3756.23,3122.88 3777.52,3110.6 3798.75,3098.21C3803.83,3095.19 3807.13,3089.51 3807.15,3083.5L3807.15,3071.66L3807.44,3070.39L3808.23,3069.36L3809.38,3068.76L3810.68,3068.71L3831.72,3072.44L3832.7,3072.8C3834.09,3073.96 3834.08,3074.71 3834.2,3075.39L3834.21,3082.26L3860.2,3056.27L3861.17,3055.62L3862.32,3055.39L3870.41,3055.39L3871.56,3055.62C3871.89,3055.84 3872.21,3056.05 3872.54,3056.27Z" style="fill:none;"/>
                    </g>
                    <g transform="matrix(0.866025,0.5,-0.5,0.866025,1881.22,-1180.65)">
                        <path d="M4401.86,2190.63C4403,2190.85 4403.01,2190.86 4403.98,2191.51L4404.63,2192.48L4404.86,2193.63L4404.86,2461.83L4417.15,2369.22L4406.53,2363.61C4405.06,2362.45 4405.06,2361.65 4404.93,2360.93L4405.52,2278.17C4405.62,2277.58 4405.58,2276.97 4406.7,2275.8L4414.4,2269.94C4415.44,2269.43 4415.46,2269.43 4416.62,2269.36L4417.73,2269.74L4418.6,2270.51L4419.12,2271.56L4419.19,2272.73L4418.81,2273.84L4418.03,2274.71L4411.51,2279.68L4410.94,2359.15L4421.8,2364.89L4422.73,2365.66L4423.28,2366.73L4423.37,2367.94L4404.83,2507.64L4404.4,2508.84L4403.5,2509.75L4402.3,2510.21L4401.03,2510.12L4399.9,2509.51L4399.13,2508.49L4398.86,2507.24L4398.86,2193.63C4399.4,2190.93 4400.47,2190.9 4401.86,2190.63Z" style="fill:none;"/>
                    </g>
                    <g transform="matrix(1,0,0,1,628.954,-7.75186)">
                        <path d="M3726.67,2950.27C3730.64,2950.32 3734.57,2951.38 3738.01,2953.36L3810.96,2995.47L3908.19,2995.47L3909.26,2995.67L3924.13,3001.33L3980.81,3001.33L3993.82,2995.72L3995.01,2995.47L4060.5,2995.47L4061.39,2995.61C4062.19,2995.99 4062.19,2996 4062.85,2996.6L4087.39,3027.4C4088.05,3028.6 4088.11,3029.88 4087.34,3031.2L4058.27,3065.7L4058.3,3089.33L4058.07,3090.48L4057.42,3091.45L4056.45,3092.11L4055.3,3092.33L4054.15,3092.11L4053.18,3091.45L4023.12,3061.39L4017.51,3061.39L3987.3,3091.61C3985.37,3092.9 3982.83,3092.76 3982.18,3089.49L3982.15,3075.4L3982.15,3067.99L3962.53,3063.48L3962.59,3101.02L3962.36,3102.17L3961.71,3103.14L3960.74,3103.8L3959.59,3104.03L3958.44,3103.8L3957.47,3103.15L3927.61,3073.28L3927.61,3078.76L3927.38,3079.91C3926.27,3081.57 3925.39,3081.61 3924.61,3081.76L3904.32,3081.76L3904.35,3089.32L3904.12,3090.47L3903.47,3091.45L3902.5,3092.1L3901.35,3092.33L3900.2,3092.11L3899.22,3091.45L3869.17,3061.39L3863.56,3061.39L3833.34,3091.61C3831.43,3092.89 3828.89,3092.82 3828.22,3089.49L3828.2,3077.91L3813.15,3075.24C3813.15,3081.79 3813.55,3088.44 3810.51,3094.22C3808.53,3098 3805.48,3101.19 3801.79,3103.38C3780.54,3115.79 3759.22,3128.09 3737.85,3140.3C3730.93,3144.18 3722.09,3144.21 3715.12,3140.3C3693.75,3128.09 3672.43,3115.79 3651.18,3103.38C3644.35,3099.32 3639.91,3091.7 3639.82,3083.7C3639.73,3059.09 3639.73,3034.47 3639.82,3009.86C3639.91,3001.96 3644.3,2994.26 3651.18,2990.18C3672.43,2977.77 3693.77,2965.51 3715.12,2953.26C3718.64,2951.29 3722.66,2950.26 3726.67,2950.27ZM3872.54,3056.27L3898.32,3082.07L3898.31,3078.77L3898.53,3077.62L3899.18,3076.65L3900.16,3075.99L3901.31,3075.76L3921.61,3075.76L3921.61,3066.03L3921.84,3064.89L3922.49,3063.91L3923.46,3063.26L3924.61,3063.03L3925.76,3063.26L3926.73,3063.91L3956.58,3093.77L3956.53,3059.72C3956.83,3058.02 3957.55,3056.67 3960.2,3056.79L3985.83,3062.67C3987.07,3063.19 3987.91,3064.14 3988.15,3065.6L3988.15,3075.39L3988.16,3082.26L4014.15,3056.27C4015.12,3055.63 4015.13,3055.62 4016.27,3055.39L4024.37,3055.39L4025.52,3055.62L4026.49,3056.27L4052.29,3082.08L4052.27,3064.61C4052.45,3063.58 4052.45,3063.57 4052.97,3062.67L4081.16,3029.21L4059.06,3001.47L3995.62,3001.47L3982.61,3007.08L3981.43,3007.33L3923.58,3007.33L3922.51,3007.13L3907.64,3001.47L3810.15,3001.47C3809.38,3001.37 3809.38,3001.37 3808.65,3001.07C3784.07,2986.88 3759.52,2972.61 3734.89,2958.48C3729.81,2955.64 3723.39,2955.57 3718.2,2958.41C3696.73,2970.47 3675.49,2982.94 3654.22,2995.35C3649.19,2998.34 3645.89,3003.94 3645.82,3009.91C3645.73,3034.49 3645.73,3059.07 3645.82,3083.65C3645.89,3089.51 3649.13,3095.19 3654.22,3098.21C3675.45,3110.6 3696.74,3122.88 3718.08,3135.08C3723.18,3137.94 3729.66,3138.01 3734.89,3135.08C3756.23,3122.88 3777.52,3110.6 3798.75,3098.21C3803.83,3095.19 3807.13,3089.51 3807.15,3083.5L3807.15,3071.66L3807.44,3070.39L3808.23,3069.36L3809.38,3068.76L3810.68,3068.71L3831.72,3072.44L3832.7,3072.8C3834.09,3073.96 3834.08,3074.71 3834.2,3075.39L3834.21,3082.26L3860.2,3056.27L3861.17,3055.62L3862.32,3055.39L3870.41,3055.39L3871.56,3055.62C3871.89,3055.84 3872.21,3056.05 3872.54,3056.27Z" style="fill:rgb(54,176,116);fill-rule:nonzero;"/>
                    </g>
                    <g transform="matrix(1,0,0,1,564.382,103.066)">
                        <path d="M3737.23,2965.61C3738.05,2965.74 3737.84,2965.7 3738.4,2965.99L3791.93,2996.9C3794.28,2998.39 3793.8,2999.07 3793.24,3000.55C3792.63,3002.18 3790.56,3002.95 3788.93,3002.1L3735.4,2971.19C3733.56,2970.03 3733.87,2969.49 3733.9,2968.51C3733.94,2966.92 3735.03,2965.62 3736.98,2965.6C3737.06,2965.6 3737.15,2965.61 3737.23,2965.61Z" style="fill:rgb(155,216,186);fill-rule:nonzero;"/>
                    </g>
                    <g transform="matrix(1,0,0,-1,617.918,6071.16)">
                        <path d="M3790.64,3002.49C3793.24,3002.24 3794.57,2998.53 3791.93,2996.9L3765.17,2981.45C3762.63,2980.09 3762.1,2981.07 3761.21,2982.32C3760.26,2983.68 3760.69,2985.73 3762.17,2986.65L3788.93,3002.1C3789.86,3002.6 3790.04,3002.52 3790.64,3002.49Z" style="fill:rgb(155,216,186);fill-rule:nonzero;"/>
                    </g>
                    <g transform="matrix(1,0,0,-1,563.735,5979.03)">
                        <path d="M3763.84,2987.04C3765.9,2986.86 3765.94,2986.2 3766.35,2985.39C3767.02,2984.05 3766.51,2982.28 3765.17,2981.45L3739.05,2966.37C3736.45,2964.97 3735.9,2966.01 3735.04,2967.32C3734.14,2968.68 3734.59,2970.67 3736.05,2971.57L3762.17,2986.65C3762.65,2986.91 3762.92,2987.07 3763.84,2987.04Z" style="fill:rgb(155,216,186);fill-rule:nonzero;"/>
                    </g>
                    <g transform="matrix(1,0,0,1,628.954,-0.518607)">
                        <path d="M3977.69,3012.72L3994.22,3029.25L4044.15,3029.25C4044.93,3029.41 4045.81,3029.45 4046.92,3031.1L4047.15,3032.25L4046.92,3033.4L4046.27,3034.37C4045.3,3035.02 4045.29,3035.03 4044.15,3035.25L3992.98,3035.25L3991.83,3035.02L3990.86,3034.37L3974.33,3017.84L3954.87,3017.84L3938.34,3034.37L3937.37,3035.02L3936.22,3035.25L3903.58,3035.25C3902.44,3035.03 3902.43,3035.02 3901.46,3034.37L3884.93,3017.84L3786.13,3017.84L3784.63,3017.44L3724.36,2982.65C3723.49,2981.88 3723.48,2981.87 3722.96,2980.83L3722.89,2979.66L3723.26,2978.55L3724.04,2977.67L3725.09,2977.15L3726.25,2977.07L3727.36,2977.45L3786.93,3011.84L3886.18,3011.84L3887.33,3012.07L3888.3,3012.72L3904.83,3029.25L3934.98,3029.25L3951.51,3012.72L3952.48,3012.07L3953.63,3011.84L3975.57,3011.84L3976.72,3012.07C3977.04,3012.29 3977.37,3012.51 3977.69,3012.72Z" style="fill:rgb(155,216,186);fill-rule:nonzero;"/>
                    </g>
                    <g transform="matrix(1,0,0,1,628.954,-0.518607)">
                        <path d="M4032.96,3011.85C4035.95,3012.13 4036.88,3017.72 4032.78,3017.84L4004.01,3017.84C4000.91,3017.75 3999.8,3011.97 4004.01,3011.84L4032.78,3011.84C4032.84,3011.85 4032.9,3011.85 4032.96,3011.85Z" style="fill:rgb(155,216,186);fill-rule:nonzero;"/>
                    </g>
                    <g transform="matrix(1,0,0,1,628.954,-0.518607)">
                        <path d="M3931.16,3011.85C3934.4,3012.12 3934.31,3013.51 3933.94,3015.42C3933.67,3016.78 3932.42,3017.8 3930.99,3017.85L3908.19,3017.85C3905.15,3017.76 3903.99,3011.96 3908.19,3011.85C3915.85,3011.85 3923.51,3011.64 3931.16,3011.85Z" style="fill:rgb(155,216,186);fill-rule:nonzero;"/>
                    </g>
                    <g transform="matrix(1,0,0,1,628.954,-0.518607)">
                        <path d="M3859.89,3029.26C3862.86,3029.53 3863.84,3035.13 3859.71,3035.25L3831.79,3035.25C3828.45,3035.15 3828.51,3033.52 3828.84,3031.71C3829.09,3030.34 3830.34,3029.3 3831.79,3029.25L3859.71,3029.25C3859.77,3029.25 3859.83,3029.26 3859.89,3029.26Z" style="fill:rgb(155,216,186);fill-rule:nonzero;"/>
                    </g>
                    <g transform="matrix(1,0,0,1,654.789,-0.518607)">
                        <path d="M3859.82,3029.25C3862.67,3029.41 3864.26,3035.01 3859.82,3035.25C3856.25,3035.32 3852.59,3035.73 3849.13,3035.22C3846.44,3034.82 3845.39,3029.48 3849.46,3029.25C3852.91,3029.19 3856.37,3029.19 3859.82,3029.25Z" style="fill:rgb(155,216,186);fill-rule:nonzero;"/>
                    </g>
                    <g transform="matrix(1.2531,0,0,1.2531,503.052,-731.627)">
                        <path d="M3170.69,2857.65C3214.84,2857.8 3258.51,2879.22 3285.67,2914.61C3293.38,2924.66 3299.78,2935.74 3304.62,2947.41C3304.88,2948.02 3305.06,2948.63 3305.18,2949.26L3304.99,2950.18C3304.47,2950.94 3304.46,2950.95 3303.69,2951.46L3302.77,2951.64L3301.86,2951.45L3301.08,2950.93C3299.81,2949.01 3299.12,2946.67 3298.12,2944.49C3276.19,2896.68 3226.29,2862.97 3171.71,2862.44C3131.95,2862.06 3092.43,2879.38 3065.67,2909.23C3053.9,2922.37 3044.64,2937.7 3038.49,2954.28L3038,2955.08C3037.25,2955.62 3037.24,2955.63 3036.34,2955.85L3035.41,2955.7L3034.62,2955.21L3034.07,2954.45L3033.85,2953.54L3034,2952.62C3044.18,2925.16 3062.8,2901.02 3086.68,2884.16C3110.75,2867.16 3140.13,2857.82 3169.6,2857.65C3169.96,2857.65 3170.33,2857.65 3170.69,2857.65Z" style="fill:rgb(54,176,116);fill-rule:nonzero;stroke:rgb(54,176,116);stroke-width:0.8px;"/>
                    </g>
                    <g transform="matrix(1.2531,0,0,1.2531,503.052,-731.627)">
                        <path d="M3313.49,3016.98C3314.2,3017.58 3314.21,3017.59 3314.63,3018.41L3314.71,3019.34C3309.1,3068.74 3276.66,3114.04 3230.82,3135.07C3189.89,3153.85 3140.16,3152.3 3100.19,3130.2C3084.79,3121.68 3070.95,3110.34 3059.56,3096.93C3058.87,3096.12 3057.51,3095.99 3058.33,3093.17L3058.92,3092.44L3059.74,3091.99L3060.67,3091.89C3061.74,3092.21 3062.54,3093.05 3063.51,3094.19C3089.45,3124.43 3128.26,3143.01 3168.81,3143.45C3215.96,3143.95 3262.46,3119.23 3288.4,3079.1C3300.09,3061.03 3307.52,3040.18 3309.95,3018.8L3310.24,3017.91C3310.84,3017.2 3310.85,3017.2 3311.67,3016.77L3312.6,3016.7C3312.9,3016.79 3313.2,3016.88 3313.49,3016.98Z" style="fill:rgb(54,176,116);fill-rule:nonzero;stroke:rgb(54,176,116);stroke-width:0.8px;"/>
                    </g>
                    <path d="M4327.4,3048.72C4327.4,3043.13 4327.4,3034.92 4327.4,3029.33C4327.4,3025.54 4329.43,3022.03 4332.71,3020.13C4337.55,3017.34 4344.66,3013.23 4349.5,3010.44C4352.79,3008.54 4356.84,3008.54 4360.13,3010.44C4364.97,3013.23 4372.08,3017.34 4376.92,3020.13C4380.21,3022.03 4382.23,3025.54 4382.23,3029.33L4382.23,3047.24C4382.23,3043.45 4380.21,3039.94 4376.92,3038.04C4372.08,3035.25 4364.97,3031.14 4360.13,3028.35C4356.84,3026.45 4352.79,3026.45 4349.5,3028.35C4344.66,3031.14 4337.55,3035.25 4332.71,3038.04C4329.43,3039.94 4327.4,3043.45 4327.4,3047.24L4327.4,3048.72Z" style="fill:rgb(155,216,186);"/>
                    <g transform="matrix(0.803956,0,0,0.803956,1365.56,590.379)">
                        <path d="M3718.47,3004.69C3721.24,3004.76 3723.97,3005.49 3726.42,3006.82C3733.91,3011.05 3741.67,3014.86 3748.74,3019.77C3753.12,3022.81 3755.89,3028.01 3756.02,3033.41C3756.09,3041.92 3756.55,3050.5 3755.99,3058.94C3755.62,3064.37 3752.51,3069.46 3747.79,3072.34C3740.46,3076.66 3733.26,3081.35 3725.67,3085.08C3720.77,3087.48 3714.82,3087.33 3709.96,3084.68C3702.56,3080.49 3694.9,3076.6 3687.87,3071.89C3683.36,3068.86 3680.5,3063.54 3680.36,3058.09C3680.29,3049.49 3679.7,3040.88 3680.42,3032.28C3680.86,3026.97 3683.94,3022 3688.59,3019.16C3695.92,3014.84 3703.15,3010.15 3710.71,3006.43C3711.3,3006.14 3711.9,3005.88 3712.51,3005.66C3714.45,3004.98 3715.82,3004.67 3718.47,3004.69ZM3718.04,3012.15C3716.48,3012.19 3714.95,3012.6 3713.59,3013.34C3706.5,3017.35 3699.44,3021.42 3692.43,3025.56C3689.68,3027.23 3687.9,3030.3 3687.82,3033.53C3687.75,3041.68 3687.75,3049.82 3687.82,3057.97C3687.9,3061.18 3689.67,3064.26 3692.43,3065.94C3699.45,3070.07 3706.5,3074.14 3713.59,3078.16C3716.42,3079.7 3719.96,3079.7 3722.79,3078.16C3729.88,3074.14 3736.93,3070.07 3743.95,3065.94C3746.72,3064.25 3748.48,3061.19 3748.56,3057.97C3748.63,3049.82 3748.63,3041.68 3748.56,3033.53C3748.48,3030.31 3746.72,3027.25 3743.95,3025.56C3736.94,3021.42 3729.88,3017.35 3722.8,3013.34C3721.32,3012.54 3720.03,3012.13 3718.04,3012.15Z" style="fill:rgb(54,176,116);fill-rule:nonzero;stroke:rgb(54,176,116);stroke-width:1.24px;"/>
                    </g>
                    <g transform="matrix(0.866025,0.5,-0.5,0.866025,1867.65,-1194.22)">
                        <path d="M4355.44,2204.94C4356.58,2205.17 4356.59,2205.17 4357.56,2205.82L4358.21,2206.79L4358.44,2207.94L4358.44,2510.18L4417.4,2509.25L4417.4,2198.6C4417.7,2197.06 4418.58,2195.96 4420.4,2195.6L4421.55,2195.82L4422.52,2196.47L4423.17,2197.45L4423.4,2198.6L4423.4,2512.21C4423.1,2513.72 4422.23,2514.83 4420.44,2515.21L4355.49,2516.22L4354.32,2516.01L4353.33,2515.36L4352.67,2514.38L4352.44,2513.22L4352.44,2207.94L4352.67,2206.79C4353.42,2205.67 4352.67,2205.49 4355.44,2204.94Z" style="fill:none;"/>
                    </g>
                    <g transform="matrix(0.866025,0.5,-0.5,0.866025,1867.65,-1194.22)">
                        <path d="M4355.44,2207.94L4355.44,2513.22L4420.4,2512.21L4420.4,2198.6" style="fill:white;"/>
                    </g>
                    <g transform="matrix(0.866025,0.5,-0.5,0.866025,1867.65,-1194.22)">
                        <path d="M4355.44,2190.5L4356.59,2190.73L4357.56,2191.38L4358.21,2192.36L4358.44,2193.5L4358.44,2519.5L4358.21,2520.65L4357.56,2521.62L4356.59,2522.27L4355.44,2522.5L4354.29,2522.27L4353.32,2521.62L4352.67,2520.65L4352.44,2519.5L4352.44,2193.5C4352.66,2192.36 4352.67,2192.35 4353.32,2191.38L4354.29,2190.73C4354.67,2190.66 4355.06,2190.58 4355.44,2190.5Z" style="fill:rgb(54,176,116);fill-rule:nonzero;stroke:rgb(54,176,116);stroke-width:1px;"/>
                    </g>
                    <g transform="matrix(0.866025,0.5,-0.5,0.866025,1867.65,-1194.22)">
                        <path d="M4420.4,2195.6C4421.54,2195.82 4421.55,2195.83 4422.52,2196.47L4423.17,2197.45L4423.4,2198.6L4423.4,2512.21C4423.09,2513.74 4422.21,2514.85 4420.4,2515.21L4419.25,2514.98L4418.28,2514.33L4417.62,2513.36L4417.4,2512.21L4417.4,2198.6C4417.93,2195.9 4419.01,2195.87 4420.4,2195.6Z" style="fill:rgb(54,176,116);fill-rule:nonzero;stroke:rgb(54,176,116);stroke-width:1px;"/>
                    </g>
                </g>
            </g>
        </g>
    </g>
</svg>
