<?xml version="1.0" encoding="UTF-8"?>
<svg width="140px" height="48px" viewBox="0 0 140 48" version="1.1" xmlns="http://www.w3.org/2000/svg" xmlns:xlink="http://www.w3.org/1999/xlink">
    <!-- Generator: Sketch 48.2 (47327) - http://www.bohemiancoding.com/sketch -->
    <title>Page 1</title>
    <desc>Created with Sketch.</desc>
    <defs></defs>
    <g id="Home" stroke="none" stroke-width="1" fill="none" fill-rule="evenodd" transform="translate(-250.000000, -184.000000)">
        <g id="Page-1" transform="translate(250.000000, 184.000000)" fill="#FFFFFF">
            <path d="M139.186178,33.025388 C138.51562,33.2684542 138.410559,33.3266325 137.991908,33.4431149 C137.558135,33.5638726 136.168071,33.8771887 135.563972,32.9558507 C134.956689,32.0305306 135.061352,30.1669807 135.052199,29.4270097 L135.052597,22.1156571 L139.171851,22.1156571 L139.171851,18.2514107 L135.054188,18.2514107 L135.054188,8 L131.073025,8.97993553 L131.071831,18.2514107 L128,18.2514107 L128,22.1156571 L131.071831,22.1156571 L131.071831,31.6045883 L131.071831,31.6731197 C131.071831,33.8421895 131.546196,35.4404581 132.473436,36.4678836 C133.421768,37.4953509 134.672548,38.0404162 136.26756,37.9976627 C138.295152,37.9433406 139.58891,37.1052042 140,36.8794909 L139.186178,33.025388 Z" id="Fill-1"></path>
            <path d="M125.977989,31.9023789 C126.023117,31.7971044 125.996547,31.8633806 125.919366,32.0353484 C125.675592,32.5778625 125.382472,33.0986878 125.045491,33.589941 C124.704713,34.0867834 124.318808,34.5532612 123.893679,34.982159 C123.454633,35.425655 122.973411,35.8288597 122.459293,36.1847243 C121.949392,36.5374606 121.406594,36.8435659 120.839756,37.0975344 C120.216403,37.377029 119.563527,37.5931254 118.895468,37.7414023 C118.270007,37.8802946 117.069694,37.9751835 116.429049,37.9950372 C115.787139,38.0148908 115.143963,37.9752252 114.510067,37.8751644 C113.833151,37.7683466 113.167623,37.5928335 112.527399,37.3521702 C111.945378,37.1335296 111.384445,36.8613341 110.853035,36.5405471 C110.316985,36.2169239 109.811723,35.8440419 109.345263,35.4283661 C108.894407,35.0264543 108.479823,34.5846267 108.108257,34.1097652 C107.741331,33.640326 107.416158,33.1386454 107.139066,32.6123562 C106.896557,32.1522182 106.690319,31.6733109 106.523304,31.1813486 C106.360085,30.700189 106.234403,30.2066834 106.147521,29.7065043 C105.960262,28.6309858 105.950984,27.5247275 106.121372,26.4464562 C106.270252,25.5063682 106.556201,24.5884278 106.968255,23.7285886 C107.458756,22.7041641 108.126814,21.7643263 108.934052,20.9594184 C109.727794,20.1675655 110.65481,19.5075977 111.667021,19.0165113 C112.449797,18.6369141 113.281918,18.3587958 114.136814,18.1912075 C114.481387,18.12368 114.829756,18.0740041 115.179391,18.0422632 C115.362432,18.0256212 115.545895,18.0142345 115.72978,18.0071022 C115.773221,18.005559 115.816662,18.0041826 115.860524,18.0030564 C116.044409,17.998802 116.228294,17.9988438 116.412601,18.0040991 C116.763922,18.0141928 117.115243,18.0422632 117.463612,18.0884355 C118.328209,18.2029278 119.1772,18.429243 119.982329,18.7601654 C121.014784,19.1841831 121.973854,19.7790425 122.810614,20.5115846 C123.668463,21.2626457 124.396832,22.1571871 124.954392,23.1474933 C125.353793,23.8573038 125.664204,24.6152886 125.877612,25.3995921 L121.98018,27.407691 L121.979758,27.4007672 L119.375847,28.7496074 L118.831784,29.0300196 L118.832205,29.0312292 L112.27519,32.4281258 C112.779187,32.8556888 113.355303,33.1992491 113.974017,33.4382022 C114.366248,33.5897742 114.77535,33.6990111 115.191622,33.7633687 C115.54463,33.8178829 116.124121,33.8784032 116.481347,33.8696859 C116.899305,33.8595089 117.223212,33.8442015 117.779085,33.7253297 C118.126189,33.6512121 118.635246,33.5198275 119.074714,33.3386419 C119.749099,33.0606905 120.34546,32.6038058 120.859579,32.0909471 C121.312543,31.6391092 121.691278,31.114405 121.974697,30.5431531 L125.977989,31.9023789 Z M120.357269,23.9527349 C120.236226,23.8288163 120.109699,23.7101113 119.978534,23.5971623 C119.512495,23.1966687 118.983615,22.8679986 118.415512,22.6286284 C117.961704,22.4372657 117.483435,22.3033785 116.995465,22.230971 C116.774466,22.1981874 116.55178,22.1780418 116.328671,22.1702421 C116.220281,22.1664883 116.11189,22.1657792 116.003921,22.1676144 C115.978194,22.168115 115.952467,22.1687406 115.92674,22.1694914 C115.600723,22.1800438 115.275973,22.2157054 114.955861,22.2783946 C114.471687,22.3733252 113.999744,22.5293183 113.555215,22.7417443 C113.02043,22.9972143 112.525712,23.3333086 112.091727,23.7339691 C111.567065,24.2181318 111.131392,24.7963491 110.814655,25.433043 C110.584377,25.8954334 110.416941,26.3880214 110.318672,26.8942066 C110.237695,27.3121347 110.203533,27.738655 110.215764,28.1639657 C110.223355,28.4315315 110.249082,28.6986802 110.293367,28.9627424 C110.303489,29.0248477 110.315298,29.0868278 110.327529,29.148516 L120.357269,23.9527349 Z" id="Fill-2"></path>
            <path d="M102.499793,33 C103.879888,33 105,34.1202043 105,35.4999793 C105,36.8797957 103.879888,38 102.499793,38 C101.120112,38 100,36.8797957 100,35.4999793 C100,34.1202043 101.120112,33 102.499793,33 Z" id="Fill-3"></path>
            <path d="M89.0002085,18 C94.5191758,18 99,22.4808522 99,27.9999791 C99,33.5191478 94.5191758,38 89.0002085,38 C83.4808242,38 79,33.5191478 79,27.9999791 C79,22.4808522 83.4808242,18 89.0002085,18 Z M89.0002085,22.1903455 C92.2063982,22.1903455 94.8098893,24.7935609 94.8098893,27.9999791 C94.8098893,31.2064391 92.2063982,33.8096128 89.0002085,33.8096128 C85.7936018,33.8096128 83.1905278,31.2064391 83.1905278,27.9999791 C83.1905278,24.7935609 85.7936018,22.1903455 89.0002085,22.1903455 Z" id="Fill-4"></path>
            <path d="M57.094716,44.0868125 L57.094716,22.2117759 L55,22.2117759 L55,18.3478054 L60.5823754,18.3537432 L61.2845559,19.7535623 C61.7783657,19.3925682 62.3056127,19.0802475 62.8585492,18.8243778 C63.5562442,18.5013523 64.2939007,18.2688158 65.0482757,18.1353404 C65.370822,18.0783457 65.6962227,18.0393318 66.022439,18.0183403 C66.1831005,18.0080119 66.3441697,18.0023249 66.5048312,18.0004014 C66.5456083,18.0000669 66.5859775,17.9999415 66.6267546,18.0000251 C66.7878238,18.0008196 66.9488931,18.0054193 67.1099624,18.0147024 C67.4365864,18.0334776 67.7628026,18.0703589 68.0857567,18.1252628 C68.8417628,18.2537621 69.5810504,18.4815317 70.281192,18.8002502 C71.1909275,19.2142247 72.0325654,19.780617 72.7698141,20.4656819 C73.4336642,21.082253 74.0122902,21.7941217 74.4865271,22.5726864 C75.0035798,23.4204977 75.3962626,24.3467132 75.6507113,25.3118591 C76.0796856,26.9392804 76.1135306,28.6742933 75.7522461,30.3186499 C75.5369434,31.2985985 75.1805521,32.2453873 74.696121,33.1185807 C74.1860004,34.0380221 73.5343834,34.8747522 72.7698141,35.5851575 C72.3661215,35.9602852 71.9314384,36.3000788 71.4706579,36.5986003 C71.0009066,36.9030179 70.5046501,37.1643236 69.9892284,37.3772904 C69.4497483,37.600293 68.8890642,37.7700644 68.317778,37.8829247 C67.7607638,37.9929833 67.1935553,38.0488908 66.6267546,38.0508143 C66.0587305,38.0527378 65.4907065,38.0005938 64.932469,37.8941731 C64.3599595,37.7850344 63.798052,37.6188592 63.256533,37.3992436 C62.7398881,37.1895802 62.2415928,36.9313689 61.7702103,36.6298366 C61.6050633,36.5242522 61.4431785,36.4133991 61.2845559,36.2974862 L61.2845559,44.0863107 L63.3955827,44.5870107 L63.4000682,44.5870107 L63.4000682,44.5880561 L63.4000682,47.9971147 L63.4000682,48 L55,48 L55,44.5880561 L57.094716,44.0868125 Z M66.6630461,22.2009875 C69.7979842,22.2009875 72.3428786,24.8108246 72.3428786,28.0253988 C72.3428786,31.239973 69.7979842,33.8498101 66.6630461,33.8498101 C63.5285158,33.8498101 60.9832136,31.239973 60.9832136,28.0253988 C60.9832136,24.8108246 63.5285158,22.2009875 66.6630461,22.2009875 Z" id="Fill-5"></path>
            <path d="M0,48 L7.06893209,40.9246282 L7.06893209,27.5384573 L30.5402394,4.0457262 L30.5402394,4.02279361 C30.8427158,3.72341904 31.1459003,3.42446143 31.4475435,3.12425295 C31.4814945,3.09131341 31.5153206,3.05795691 31.5495215,3.02543433 C31.6330451,2.94496178 31.7178602,2.86615705 31.8038416,2.78902015 C32.0005075,2.61181376 32.2037969,2.44211258 32.4127934,2.27949965 C32.5225198,2.19444058 32.6337457,2.11104934 32.7467213,2.03015983 C32.9390548,1.89256428 33.1357207,1.76080612 33.336469,1.63571925 C33.3850835,1.6056984 33.4341146,1.57567755 33.483229,1.54649062 C33.6847272,1.42557331 33.8899745,1.31132731 34.0988044,1.20333565 C34.4150695,1.04072272 34.7396661,0.893537179 35.070428,0.762612926 C35.56278,0.567894371 36.0697122,0.408617095 36.5853509,0.288116748 C37.0951575,0.168867269 37.6135456,0.085476025 38.1351829,0.0404447533 C38.2861503,0.0275191105 38.4374093,0.0175121612 38.5887933,0.0108408617 C38.7200983,0.00500347464 38.8514866,0.00166782488 38.9829166,0 C39.0466528,0 39.110389,0 39.1741253,0 C39.261773,0.00125086866 39.3493791,0.00250173732 39.4369852,0.00542043085 C39.6979705,0.0141765115 39.9587059,0.0316886727 40.2184415,0.058790827 C40.7393707,0.112995136 41.256634,0.20514246 41.764316,0.333564976 C42.0829972,0.414037526 42.3975127,0.509103544 42.7074457,0.617512161 C42.8540807,0.669214732 42.999466,0.724252953 43.1440181,0.781792912 C43.8817755,1.07741487 44.5874565,1.45392634 45.2435648,1.90298819 C46.4678838,2.74148714 47.5201566,3.83057679 48.3137353,5.08561501 C48.6369988,5.59638638 48.917355,6.13467686 49.1510545,6.69214732 C49.3305991,7.11990271 49.482233,7.55920778 49.6055397,8.00635163 C49.9079744,9.10173732 50.0379463,10.2439472 49.9904566,11.379319 C49.9596299,12.1218763 49.8529863,12.8614315 49.6726086,13.5823905 C49.5388874,14.1175122 49.3643418,14.6425017 49.1510545,15.1511466 C48.9477651,15.6367338 48.70865,16.1075608 48.437042,16.5584573 C48.2620798,16.8484503 48.0737871,17.1300625 47.8725805,17.4025434 C47.6397141,17.7188464 47.388935,18.0222238 47.123159,18.3114663 C47.0294292,18.4133287 46.9336166,18.5130646 46.8361376,18.6114246 L46.8094767,18.6384851 C46.7053326,18.7421404 46.5999386,18.8445031 46.4916287,18.9442808 C46.3716546,19.0553996 46.2483479,19.1632662 46.1237914,19.2695483 L46.178363,19.2239333 L22.4701901,42.9536206 L9.01838618,42.9536206 L3.97659975,48 L0,48 Z M25.9731422,35.3198193 L16.6452395,35.3198193 L11.9343816,40.0349687 L21.2622843,40.0349687 L25.9731422,35.3198193 Z M9.98496915,28.7474218 L9.98496915,38.0059347 L14.6938275,33.2927867 L14.6938275,24.0342738 L9.98496915,28.7474218 Z M34.108344,27.1772064 L24.7804413,27.1772064 L19.4571324,32.5053648 L28.785035,32.5053648 L34.108344,27.1772064 Z M17.5057204,21.2198193 L17.5057204,30.4783322 L22.7774571,25.2017929 L22.7774571,15.9432801 L17.5057204,21.2198193 Z M42.3437743,18.934107 L33.0160382,18.934107 L27.5923342,24.3627519 L36.9202369,24.3627519 L42.3437743,18.934107 Z M25.58935,13.1288256 L25.58935,22.3873384 L31.0130957,16.9586518 L31.0130957,7.70013899 L25.58935,13.1288256 Z M45.1681644,16.1196525 C45.5718273,15.6478249 45.9209186,15.1290479 46.2041908,14.5762474 C46.4228935,14.1501181 46.6028547,13.7041418 46.7411582,13.2456567 C46.8852937,12.7690757 46.984439,12.2790688 47.0377608,11.7840584 C47.1302408,10.9242113 47.0831676,10.0499792 46.8990407,9.20505907 C46.7399084,8.47655316 46.4787148,7.77072967 46.124208,7.11489924 C45.9188357,6.73542738 45.6826367,6.37284225 45.4189436,6.03168867 C44.9007222,5.36205698 44.2766903,4.77414871 43.5764248,4.29798471 C42.9953003,3.90271022 42.3616871,3.58540653 41.6972472,3.35649757 C41.13591,3.16261293 40.5531192,3.03210563 39.9629966,2.96706046 C39.7883677,2.94788047 39.6131138,2.93412092 39.4375684,2.92619875 C39.3418807,2.92202919 39.2461514,2.91994441 39.1503804,2.91869354 C39.1184706,2.91869354 39.0865192,2.91869354 39.0546094,2.91869354 C38.9907899,2.91911049 38.9269286,2.91952745 38.8631091,2.92161223 C38.7194734,2.92536484 38.5759628,2.933287 38.4327437,2.94454482 C38.0181665,2.97831828 37.6062138,3.04419736 37.2018428,3.14176511 C36.7630209,3.24767199 36.333197,3.39068798 35.9186615,3.5695622 C35.4976274,3.75135511 35.0924649,3.96942321 34.7092143,4.22126477 C34.4224845,4.40972898 34.1480438,4.61695622 33.8880166,4.84086171 C33.8668962,4.85920778 33.845859,4.87755386 33.8249885,4.89589993 L33.8249885,14.1441974 L39.1247609,8.83959694 C39.2218233,8.76508687 39.3099709,8.67719249 39.4159064,8.61598332 C39.7025529,8.45032662 39.7991987,8.46958999 40.1188796,8.42743572 C40.2401868,8.44344684 40.3614939,8.45941626 40.4828011,8.47538568 C40.7806951,8.59888812 40.8790072,8.60535094 41.11304,8.83959694 C41.199563,8.92619875 41.2752966,9.02501737 41.3364917,9.13104934 C41.4598818,9.34498958 41.5248261,9.5876581 41.5248261,9.83466296 C41.5248261,9.957123 41.5086212,10.0806254 41.4769197,10.1988742 C41.3912716,10.5188881 41.3093309,10.5736762 41.11304,10.829729 L35.8279311,16.1196525 L45.1681644,16.1196525 Z" id="Fill-6"></path>
        </g>
    </g>
</svg>