<?xml version="1.0" encoding="UTF-8" standalone="no"?>
<!DOCTYPE svg PUBLIC "-//W3C//DTD SVG 1.1//EN" "http://www.w3.org/Graphics/SVG/1.1/DTD/svg11.dtd">
<svg width="100%" height="100%" viewBox="0 0 498 498" version="1.1" xmlns="http://www.w3.org/2000/svg" xmlns:xlink="http://www.w3.org/1999/xlink" xml:space="preserve" xmlns:serif="http://www.serif.com/" style="fill-rule:evenodd;clip-rule:evenodd;stroke-linejoin:round;stroke-miterlimit:1.41421;">
    <g transform="matrix(1,0,0,1,2774.72,-4048.24)">
        <g transform="matrix(1,0,0,1,-6272.76,1235.28)">
            <g>
                <g transform="matrix(1.08522,0.62655,-0.62655,1.08522,2187.95,-2184.93)">
                    <circle cx="3170.33" cy="3002.95" r="142.903" style="fill:white;"/>
                </g>
                <g transform="matrix(0.866025,0.5,-0.5,0.866025,393.508,-1572.68)">
                    <path d="M5238.41,2501.97L5238.69,2403.84L5229.3,2403.84L5229.02,2501.97L5238.41,2501.97Z" style="fill:rgb(173,209,251);"/>
                </g>
                <g transform="matrix(0.866025,0.5,-0.5,0.866025,383.671,-1593.42)">
                    <path d="M5237.39,2169.54C5238.11,2169.53 5238.82,2169.52 5239.54,2169.52C5250.55,2169.52 5261.32,2170.52 5271.78,2172.42C5290.17,2187.39 5307.66,2207.11 5323.17,2230.24C5343.76,2261 5352.9,2298 5349.01,2334.81C5346.15,2362.22 5341.51,2389.4 5335.3,2415.27L5357.77,2437.74L5357.82,2483C5352.43,2487.75 5346.74,2492.18 5340.81,2496.27L5317.85,2473.2L5317.85,2473.2L5317.85,2473.2C5316.78,2476.1 5315.68,2478.97 5314.57,2481.8L5314.16,2482.81C5275.09,2502.42 5230.44,2502.42 5191.37,2482.81C5190.13,2479.71 5188.92,2476.55 5187.74,2473.36L5187.74,2473.37L5154.77,2506.34C5152.38,2505.05 5150.02,2503.71 5147.7,2502.32L5147.68,2438.11L5170.24,2415.27L5170.24,2415.27L5170.24,2415.27C5164.03,2389.39 5159.41,2362.21 5156.59,2334.8C5152.7,2298.01 5161.84,2261.02 5182.42,2230.28C5198.9,2205.59 5217.67,2184.81 5237.39,2169.54Z" style="fill:rgb(173,209,251);"/>
                </g>
                <g transform="matrix(1.08522,0.62655,-0.62655,1.08522,2187.95,-2184.93)">
                    <path d="M3170.8,2857.65C3215.15,2857.85 3258.59,2879.29 3285.69,2914.64C3313.37,2950.74 3322.8,3000.12 3309.61,3044.42C3297.4,3085.45 3266.02,3120.4 3226.46,3136.99C3184.79,3154.46 3135.05,3151.2 3095.76,3127.65C3058.84,3105.51 3032.46,3066.23 3026.44,3023.25C3019.95,2976.85 3037.24,2927.8 3072.33,2895.71C3098.49,2871.78 3133.4,2857.94 3169.39,2857.65C3169.86,2857.65 3170.33,2857.65 3170.8,2857.65ZM3169.88,2862.44C3127.8,2862.63 3086.38,2882.63 3060.07,2915.89C3027.92,2956.53 3020.55,3015.46 3043.5,3063.45C3062.25,3102.67 3100.15,3132.29 3142.89,3140.77C3184.4,3149.01 3229.52,3137.37 3261.94,3109.45C3284.58,3089.96 3300.86,3063.09 3307.43,3033.81C3315.55,2997.7 3308.79,2958.56 3288.69,2927.24C3264.1,2888.91 3220.52,2863.82 3174.41,2862.49C3172.9,2862.45 3171.39,2862.43 3169.88,2862.44Z" style="fill:none;"/>
                </g>
                <g transform="matrix(0.866025,0.5,-0.5,0.866025,393.508,-1572.68)">
                    <path d="M5239.03,2400.86C5240.51,2401.11 5241.61,2402.31 5241.69,2403.85L5241.41,2501.98C5241.32,2503.6 5240.08,2504.88 5238.41,2504.97L5229.02,2504.97C5227.39,2504.88 5226.11,2503.64 5226.02,2501.96L5226.3,2403.83C5226.39,2402.22 5227.63,2400.93 5229.3,2400.84L5238.69,2400.84C5238.8,2400.85 5238.91,2400.85 5239.03,2400.86ZM5232.29,2406.84L5232.03,2498.97L5235.42,2498.97L5235.68,2406.84C5234.55,2406.84 5233.42,2406.84 5232.29,2406.84Z" style="fill:rgb(173,209,251);fill-rule:nonzero;"/>
                </g>
                <g transform="matrix(0.866025,0.5,-0.5,0.866025,383.671,-1593.42)">
                    <path d="M5240.07,2166.52C5250.71,2166.57 5261.41,2167.51 5271.82,2169.38C5273.85,2169.74 5275.18,2171.33 5276.72,2172.63C5297.12,2189.88 5314.81,2210.85 5328.77,2233.39C5347.6,2263.81 5355.61,2301.22 5351.86,2336.41C5349.07,2362.65 5344.68,2388.66 5338.6,2414.34L5359.89,2435.62C5360.53,2436.59 5360.54,2436.6 5360.77,2437.74L5360.82,2483L5360.55,2484.24L5359.8,2485.26C5354.48,2489.93 5348.91,2494.31 5343.07,2498.35C5341.88,2499.18 5341.21,2500.17 5338.68,2498.38L5319.02,2478.63C5317.99,2481.3 5317.89,2484.31 5315.04,2485.73C5314.04,2486.23 5311.78,2487.32 5309.86,2488.18C5272.7,2504.86 5228.13,2504.11 5191.43,2486.19C5190.25,2485.61 5188.94,2484.83 5188.11,2482.75C5187.45,2481.07 5186.57,2478.78 5186.57,2478.78L5156.89,2508.46L5155.82,2509.15L5154.56,2509.33L5153.34,2508.98C5151.07,2507.75 5148.82,2506.48 5146.6,2505.16C5146.6,2505.16 5145.24,2505.39 5144.7,2502.32L5144.68,2438.11C5144.9,2436.98 5144.9,2436.96 5145.54,2436L5166.94,2414.34C5160.27,2386.18 5154.81,2357.41 5153.02,2328.08C5150.75,2291.12 5162.43,2253.77 5183.07,2223.99C5197.69,2202.88 5214.82,2183.38 5235.08,2167.53C5235.08,2167.53 5236.93,2166.52 5240.07,2166.52ZM5341.28,2492.27C5345.96,2488.94 5350.48,2485.39 5354.82,2481.64L5354.77,2438.99L5333.18,2417.39C5333.18,2417.39 5332.43,2416.7 5332.31,2415.59C5332.13,2413.84 5333.03,2411.82 5333.52,2409.73C5339.58,2383.43 5344.45,2356.62 5346.45,2329.84C5348.91,2296.91 5340.66,2263.49 5322.99,2235.47C5308.89,2213.11 5291.5,2192.67 5271.16,2175.79L5270.48,2175.24C5259.86,2173.35 5249.17,2172.47 5238.48,2172.53L5238.43,2172.53C5215.79,2190.24 5196.53,2212.85 5181.7,2236.95C5163.72,2266.16 5156.12,2301.76 5159.7,2335.77C5162.5,2362.28 5166.97,2388.66 5173.17,2414.61C5173.17,2414.61 5173.17,2415.94 5173.17,2415.94C5173.17,2415.94 5172.38,2417.38 5172.38,2417.38L5150.68,2439.34L5150.7,2500.61C5152.16,2501.46 5154.23,2502.63 5154.23,2502.63C5154.23,2502.63 5185.7,2471.16 5185.7,2471.16L5186.7,2470.55C5188.27,2470.3 5189.86,2470.47 5190.77,2472.91C5190.99,2473.51 5191.21,2474.1 5191.44,2474.69C5192.18,2476.64 5192.93,2478.6 5193.7,2480.55L5193.73,2480.64C5230.13,2498.49 5274.46,2498.97 5311.8,2480.64C5312.91,2477.82 5313.99,2474.99 5315.04,2472.16C5315.04,2472.16 5315.75,2471.06 5315.75,2471.06L5316.85,2470.38L5318.13,2470.21L5319.36,2470.61C5319.36,2470.61 5319.98,2471.09 5319.98,2471.09L5341.15,2492.37C5341.2,2492.33 5341.24,2492.3 5341.28,2492.27Z" style="fill:none;"/>
                </g>
                <g transform="matrix(1.08522,0.62655,-0.62655,1.08522,2187.95,-2184.93)">
                    <path d="M3170.64,2857.65C3176.73,2857.67 3182.76,2858.04 3188.89,2858.83C3189.75,2858.93 3190.45,2859.28 3191.06,2859.81L3191.48,2860.65L3191.54,2861.58L3191.24,2862.47C3189.78,2864.14 3186.7,2863.35 3184,2863.09C3182.37,2862.94 3180.73,2862.81 3179.1,2862.7C3136.14,2860.06 3092.27,2878.3 3063.83,2911.33C3034.75,2945.1 3022.93,2992.95 3034.03,3037.2C3044.3,3078.12 3074.12,3113.81 3112.92,3131.21C3149.45,3147.6 3193.06,3147.36 3229.71,3130.31L3230.62,3130.09C3231.53,3130.23 3231.54,3130.24 3232.34,3130.72L3232.89,3131.47C3233.6,3134.38 3229.27,3135.82 3225.98,3137.19C3180.07,3156.28 3124.45,3150.06 3083.42,3119.36C3047.2,3092.27 3024.75,3047.93 3025.04,3002.01C3025.39,2946.07 3060.42,2891.68 3113.8,2869.08C3131.32,2861.66 3150.29,2857.81 3169.39,2857.65C3169.81,2857.65 3170.22,2857.65 3170.64,2857.65Z" style="fill:rgb(68,155,243);fill-rule:nonzero;"/>
                </g>
                <g transform="matrix(1.08522,0.62655,-0.62655,1.08522,2187.95,-2184.93)">
                    <path d="M3220.32,2866.49C3264.33,2882.7 3299.64,2921.23 3311.26,2967.48C3322.73,3013.13 3310.47,3064.11 3278.76,3099.62C3270.43,3108.96 3260.93,3117.2 3250.43,3124.16C3250.01,3124.43 3249.56,3124.63 3249.11,3124.81L3248.17,3124.81C3247.32,3124.45 3247.31,3124.44 3246.66,3123.78L3246.3,3122.92C3246.32,3120.61 3249.38,3119.14 3251.76,3117.44C3278.93,3098.06 3298.89,3068.82 3306.84,3036.36C3316.86,2995.39 3307.37,2950.2 3281.17,2916.63C3265.12,2896.04 3243.22,2880.03 3218.67,2870.98L3217.87,2870.5C3216.93,2869.21 3217.15,2868.54 3217.25,2867.91L3217.74,2867.11L3218.49,2866.56L3219.4,2866.35C3219.71,2866.39 3220.01,2866.44 3220.32,2866.49Z" style="fill:rgb(68,155,243);fill-rule:nonzero;"/>
                </g>
                <g transform="matrix(0.866025,0.5,-0.5,0.866025,310.517,-1592.14)">
                    <path d="M5296.73,2109.63C5301.88,2109.71 5306.37,2112.49 5310.82,2115.8C5335.53,2134.17 5356.29,2158.17 5372.33,2183.9C5391.35,2214.41 5399.47,2251.47 5395.67,2287.24C5390.36,2337.1 5379.87,2386.41 5361.16,2433.78C5360.08,2436.5 5356.07,2438.01 5352.71,2439.49C5316.57,2455.4 5273.8,2455.09 5237.58,2438.2C5235.97,2437.45 5233.83,2436.38 5233.83,2436.38C5231.96,2434.97 5231.56,2432.74 5230.77,2430.69C5213.34,2385.53 5203.05,2337.88 5197.8,2289.72C5193.58,2251.05 5202.32,2211.24 5224.6,2178.2C5241.24,2153.52 5260.98,2130.9 5285.49,2113.49C5288.83,2111.12 5292.39,2109.61 5296.73,2109.63ZM5296.46,2115.63C5291.44,2115.71 5287.19,2119.55 5282.83,2122.94C5260.37,2140.39 5241.54,2162.37 5226.4,2186.39C5208.76,2214.39 5200.39,2247.96 5202.98,2281.14C5205.49,2313.26 5211.52,2345.1 5219.7,2376.39C5224.59,2395.09 5230.46,2413.57 5237.53,2431.52C5274.53,2449.67 5318.82,2449.58 5355.6,2431.52C5355.86,2430.87 5356.11,2430.21 5356.37,2429.55C5373.83,2384.48 5384.28,2336.63 5389.57,2287.84C5393.61,2250.55 5384.27,2212.03 5363.61,2181.52C5362.76,2180.25 5361.89,2178.99 5361.01,2177.73C5345.23,2155.13 5326.32,2134.13 5304.17,2118.38C5301.89,2116.76 5299.3,2115.62 5296.46,2115.63Z" style="fill:none;"/>
                </g>
                <g transform="matrix(1.07274,0.619346,-0.619346,1.07274,-386.035,-3977.94)">
                    <path d="M5726.35,3128.01C5737.4,3128.11 5748.26,3132.59 5756.16,3140.35C5771.32,3155.41 5780.9,3175.62 5780.9,3196.81C5780.9,3196.81 5780.83,3198.66 5780.23,3200.05C5778.18,3204.83 5771.14,3206.65 5766.99,3202.7C5760.24,3196.06 5753.99,3188.61 5745.65,3184.39C5729.56,3176.27 5708.73,3179.22 5695.44,3192.28C5691.89,3195.8 5688.36,3199.35 5684.83,3202.88C5680.32,3207.31 5670.97,3204.35 5671.01,3196.67C5671.02,3196.12 5671.03,3195.56 5671.04,3195.01C5671.56,3175.77 5679.65,3156.87 5693.28,3143.1C5696.63,3139.74 5700.09,3136.49 5704.12,3134.08C5710.65,3130.16 5718.22,3128.08 5725.84,3128.01C5726.01,3128.01 5726.18,3128.01 5726.35,3128.01ZM5725.87,3132.86C5716.05,3132.94 5706.44,3136.92 5699.43,3143.8C5685.38,3157.74 5676.09,3176.21 5675.86,3196.25C5675.84,3198.03 5676.59,3199.95 5678.45,3200.33C5679.48,3200.55 5680.59,3200.22 5681.37,3199.49C5688.81,3192.18 5695.82,3184.08 5705.11,3179.63C5722.93,3171.09 5745.83,3174.84 5760.09,3188.91C5763.53,3192.34 5766.91,3195.82 5770.36,3199.23C5772.24,3201.01 5775.98,3199.64 5776.05,3196.87C5776.16,3178.39 5768.47,3159.63 5755.1,3146.14C5752.22,3143.25 5749.24,3140.45 5745.79,3138.35C5739.95,3134.8 5733.14,3132.92 5726.32,3132.86C5726.17,3132.86 5726.02,3132.86 5725.87,3132.86Z" style="fill:none;"/>
                </g>
                <g transform="matrix(0.866025,0.5,-0.5,0.866025,310.517,-1592.14)">
                    <path d="M5288.27,2115.2C5293.27,2111.78 5299.86,2111.78 5304.86,2115.2C5327.16,2130.8 5348.47,2153.54 5366.97,2181.12C5387.56,2211.88 5396.7,2248.89 5392.81,2285.69C5387.3,2338.43 5375.22,2390.35 5357.96,2433.7C5318.89,2453.3 5274.24,2453.3 5235.17,2433.7C5217.91,2390.35 5205.83,2338.43 5200.39,2285.68C5196.5,2248.89 5205.64,2211.91 5226.22,2181.16C5244.66,2153.54 5265.97,2130.8 5288.27,2115.2Z" style="fill:white;"/>
                </g>
                <g transform="matrix(1.07274,0.619346,-0.619346,1.07274,-386.035,-3977.94)">
                    <path d="M5673.44,3197.15C5673.42,3177.46 5681.24,3158.57 5695.16,3144.64C5695.95,3143.86 5696.75,3143.06 5697.55,3142.26C5713.31,3126.49 5738.88,3126.49 5754.65,3142.26C5755.32,3142.93 5755.99,3143.6 5756.66,3144.27C5770.59,3158.2 5778.44,3177.09 5778.48,3196.8C5778.48,3196.8 5778.48,3196.8 5778.48,3196.8C5778.48,3199.14 5777.07,3201.26 5774.91,3202.15C5772.74,3203.05 5770.25,3202.55 5768.6,3200.89C5765.63,3197.9 5762.19,3194.45 5758.59,3190.83C5749.98,3182.18 5738.28,3177.31 5726.07,3177.3C5713.87,3177.28 5702.16,3182.12 5693.53,3190.76C5689.77,3194.51 5686.19,3198.09 5683.12,3201.16C5681.5,3202.78 5679.06,3203.27 5676.94,3202.39C5674.82,3201.51 5673.44,3199.45 5673.44,3197.15C5673.44,3197.15 5673.44,3197.15 5673.44,3197.15Z" style="fill:rgb(173,209,251);"/>
                </g>
                <g transform="matrix(0.866025,0.5,-0.5,0.866025,372.858,-2453.81)">
                    <path d="M5755.94,3143.55L5778.41,3166.03L5778.5,3241.68L5738.5,3201.49" style="fill:rgb(173,209,251);"/>
                </g>
                <g transform="matrix(0.866025,0.5,-0.5,0.866025,281.847,-2506.36)">
                    <path d="M5713.48,3201.65L5673.44,3241.68L5673.41,3166.39L5695.98,3143.55" style="fill:rgb(173,209,251);"/>
                </g>
                <g transform="matrix(0.866025,0.5,-0.5,0.866025,372.858,-2453.81)">
                    <path d="M5756.27,3140.57C5757.51,3140.78 5757.57,3141 5758.06,3141.43L5780.54,3163.91C5781.39,3164.86 5781.37,3165.24 5781.41,3166.02L5781.5,3241.68C5781.37,3244.08 5778.32,3245.54 5776.38,3243.8L5736.38,3203.61C5734.53,3201.53 5735.35,3200.62 5736.16,3199.61C5737.22,3198.3 5739.34,3198.22 5740.63,3199.37L5775.49,3234.41L5775.42,3167.27L5753.82,3145.67C5752.12,3143.77 5753.47,3140.41 5756.27,3140.57Z" style="fill:rgb(68,155,243);fill-rule:nonzero;"/>
                </g>
                <g transform="matrix(0.866025,0.5,-0.5,0.866025,281.847,-2506.36)">
                    <path d="M5696.3,3140.57C5698.55,3140.93 5699.76,3143.79 5698.11,3145.66L5676.41,3167.62L5676.44,3234.44L5711.36,3199.53C5713.73,3197.4 5718.48,3200.55 5715.6,3203.77L5675.57,3243.8C5673.74,3245.43 5670.59,3244.23 5670.44,3241.68L5670.41,3166.39C5670.45,3165.65 5670.47,3165.21 5671.28,3164.28L5693.85,3141.44C5694.45,3140.9 5694.78,3140.49 5696.3,3140.57Z" style="fill:rgb(68,155,243);fill-rule:nonzero;"/>
                </g>
                <g transform="matrix(0.866025,0.5,-0.5,0.866025,310.517,-1592.14)">
                    <path d="M5296.73,2109.63C5301.88,2109.71 5306.37,2112.49 5310.82,2115.8C5335.53,2134.17 5356.29,2158.17 5372.33,2183.9C5391.35,2214.41 5399.47,2251.47 5395.67,2287.24C5390.36,2337.1 5379.87,2386.41 5361.16,2433.78C5360.08,2436.5 5356.07,2438.01 5352.71,2439.49C5316.57,2455.4 5273.8,2455.09 5237.58,2438.2C5235.97,2437.45 5233.83,2436.38 5233.83,2436.38C5231.96,2434.97 5231.56,2432.74 5230.77,2430.69C5213.34,2385.53 5203.05,2337.88 5197.8,2289.72C5193.58,2251.05 5202.32,2211.24 5224.6,2178.2C5241.24,2153.52 5260.98,2130.9 5285.49,2113.49C5288.83,2111.12 5292.39,2109.61 5296.73,2109.63ZM5296.46,2115.63C5291.44,2115.71 5287.19,2119.55 5282.83,2122.94C5260.37,2140.39 5241.54,2162.37 5226.4,2186.39C5208.76,2214.39 5200.39,2247.96 5202.98,2281.14C5205.49,2313.26 5211.52,2345.1 5219.7,2376.39C5224.59,2395.09 5230.46,2413.57 5237.53,2431.52C5274.53,2449.67 5318.82,2449.58 5355.6,2431.52C5355.86,2430.87 5356.11,2430.21 5356.37,2429.55C5373.83,2384.48 5384.28,2336.63 5389.57,2287.84C5393.61,2250.55 5384.27,2212.03 5363.61,2181.52C5362.76,2180.25 5361.89,2178.99 5361.01,2177.73C5345.23,2155.13 5326.32,2134.13 5304.17,2118.38C5301.89,2116.76 5299.3,2115.62 5296.46,2115.63Z" style="fill:rgb(68,155,243);fill-rule:nonzero;"/>
                </g>
                <g transform="matrix(0.866025,0.5,-0.5,0.866025,383.671,-1593.42)">
                    <path d="M5238.41,2501.97L5238.69,2403.84L5229.3,2403.84L5229.02,2501.97L5238.41,2501.97Z" style="fill:rgb(173,209,251);"/>
                </g>
                <g transform="matrix(0.866025,0.5,-0.5,0.866025,383.671,-1593.42)">
                    <path d="M5239.03,2400.86C5240.51,2401.11 5241.61,2402.31 5241.69,2403.85L5241.41,2501.98C5241.32,2503.6 5240.08,2504.88 5238.41,2504.97L5229.02,2504.97C5227.39,2504.88 5226.11,2503.64 5226.02,2501.96L5226.3,2403.83C5226.39,2402.22 5227.63,2400.93 5229.3,2400.84L5238.69,2400.84C5238.8,2400.85 5238.91,2400.85 5239.03,2400.86ZM5232.29,2406.84L5232.03,2498.97L5235.42,2498.97L5235.68,2406.84C5234.55,2406.84 5233.42,2406.84 5232.29,2406.84Z" style="fill:rgb(68,155,243);fill-rule:nonzero;"/>
                </g>
            </g>
            <g transform="matrix(1.0305,0,0,1.0305,-59.3884,-476.953)">
                <rect x="3452.14" y="3192.55" width="483.261" height="483.261" style="fill:none;"/>
            </g>
        </g>
    </g>
</svg>
